<svg width="30" height="30" fill="none" xmlns="http://www.w3.org/2000/svg"><rect width="30" height="30" rx="15" fill="url(#a)"/><path d="M12.504 15.038a2.502 2.502 0 1 1 5.003-.001 2.502 2.502 0 0 1-5.004.001Zm-1.353 0a3.854 3.854 0 1 0 7.708.002 3.854 3.854 0 0 0-7.708-.002Zm6.959-4.007a.901.901 0 1 0 .9-.9.9.9 0 0 0-.9.9Zm-6.137 10.118c-.732-.034-1.13-.156-1.394-.259-.35-.136-.6-.299-.863-.561a2.316 2.316 0 0 1-.561-.863c-.103-.264-.225-.662-.259-1.394-.036-.791-.043-1.029-.043-3.033 0-2.005.008-2.242.043-3.034.034-.732.157-1.13.259-1.394.136-.35.298-.6.56-.864.263-.262.513-.425.864-.561.264-.103.662-.225 1.394-.258.79-.037 1.028-.044 3.032-.044 2.003 0 2.24.008 3.032.044.732.033 1.129.156 1.394.258.35.136.6.299.863.561.263.263.425.513.561.864.104.264.225.662.259 1.394.036.792.043 1.029.043 3.034 0 2.004-.007 2.241-.043 3.033-.034.732-.156 1.13-.259 1.394-.136.35-.298.6-.56.863a2.333 2.333 0 0 1-.864.561c-.264.104-.662.225-1.394.259-.79.036-1.028.043-3.032.043-2.005 0-2.242-.007-3.032-.043ZM11.91 7.577c-.8.037-1.345.163-1.822.349a3.68 3.68 0 0 0-1.33.866 3.668 3.668 0 0 0-.865 1.33c-.185.477-.312 1.023-.348 1.822-.037.8-.046 1.056-.046 3.094 0 2.039.009 2.295.046 3.095.036.8.163 1.345.348 1.822.192.494.448.913.866 1.33a3.69 3.69 0 0 0 1.33.866c.477.186 1.022.312 1.82.349.801.036 1.057.045 3.095.045 2.037 0 2.293-.008 3.094-.045.799-.037 1.344-.163 1.821-.349a3.69 3.69 0 0 0 1.33-.866 3.68 3.68 0 0 0 .865-1.33c.186-.477.313-1.023.349-1.822.036-.8.045-1.056.045-3.095 0-2.038-.009-2.294-.045-3.094-.037-.8-.163-1.346-.349-1.823a3.69 3.69 0 0 0-.866-1.33 3.672 3.672 0 0 0-1.328-.865c-.478-.186-1.024-.313-1.822-.349-.8-.036-1.056-.045-3.094-.045s-2.294.008-3.094.045Z" fill="#fff"/><defs><linearGradient id="a" x1="29.423" y1="30" x2="-.577" y2="0" gradientUnits="userSpaceOnUse"><stop stop-color="#FBE18A"/><stop offset=".21" stop-color="#FCBB45"/><stop offset=".38" stop-color="#F75274"/><stop offset=".52" stop-color="#D53692"/><stop offset=".74" stop-color="#8F39CE"/><stop offset="1" stop-color="#5B4FE9"/></linearGradient></defs></svg>