<svg width="30" height="30" fill="none" xmlns="http://www.w3.org/2000/svg"><rect width="30" height="30" rx="15" fill="#2787F5"/><path fill-rule="evenodd" clip-rule="evenodd" d="M23.753 10.68c.127-.396 0-.688-.603-.688h-1.995c-.507 0-.741.252-.868.53 0 0-1.015 2.32-2.452 3.827-.465.436-.677.575-.93.575-.127 0-.31-.139-.31-.535V10.68c0-.476-.148-.689-.57-.689h-3.136c-.317 0-.508.221-.508.43 0 .452.719.556.793 1.825v2.756c0 .604-.116.714-.37.714-.677 0-2.322-2.33-3.298-4.997-.19-.518-.383-.728-.893-.728H6.618c-.57 0-.684.252-.684.53 0 .495.677 2.954 3.15 6.206 1.648 2.221 3.971 3.425 6.085 3.425 1.268 0 1.425-.267 1.425-.728v-1.678c0-.535.12-.642.522-.642.296 0 .803.139 1.987 1.21 1.353 1.269 1.576 1.838 2.337 1.838h1.995c.57 0 .855-.267.69-.795-.18-.526-.825-1.289-1.682-2.194-.465-.515-1.163-1.07-1.374-1.348-.296-.357-.211-.516 0-.833 0 0 2.43-3.212 2.684-4.303Z" fill="#fff"/></svg>