<svg width="30" height="30" fill="none" xmlns="http://www.w3.org/2000/svg"><rect width="30" height="30" rx="15" fill="#34AADF"/><path d="M8.346 14.469s6.104-2.571 8.22-3.476c.812-.362 3.564-1.52 3.564-1.52s1.27-.508 1.164.723c-.035.507-.318 2.281-.6 4.2-.423 2.716-.882 5.685-.882 5.685s-.07.832-.67.977c-.6.145-1.588-.507-1.764-.651-.141-.11-2.646-1.738-3.563-2.535-.247-.217-.53-.652.035-1.159a135.39 135.39 0 0 0 3.704-3.62c.424-.435.847-1.448-.917-.217-2.505 1.774-4.975 3.44-4.975 3.44s-.564.361-1.623.035c-1.058-.325-2.293-.76-2.293-.76s-.846-.543.6-1.122Z" fill="#fff"/></svg>