<svg width="30" height="30" fill="none" xmlns="http://www.w3.org/2000/svg"><rect width="30" height="30" rx="15" fill="#3CF"/><path d="M22.446 10.25a6.275 6.275 0 0 1-1.55.443c.25-.043.616-.492.762-.674a2.89 2.89 0 0 0 .5-.924c0-.025.024-.06 0-.078a.085.085 0 0 0-.083 0 7.833 7.833 0 0 1-1.834.713.128.128 0 0 1-.128-.032 1.778 1.778 0 0 0-.16-.168 3.34 3.34 0 0 0-.877-.567 3.078 3.078 0 0 0-1.364-.224c-.452.028-.893.15-1.296.356a3.36 3.36 0 0 0-1.026.87 3.297 3.297 0 0 0-.624 1.248 3.429 3.429 0 0 0-.032 1.32c0 .074 0 .085-.064.074-2.54-.374-4.623-1.276-6.326-3.212-.074-.086-.114-.086-.174 0-.741 1.126-.381 2.909.545 3.79.124.117.253.231.388.338a3.178 3.178 0 0 1-1.218-.338c-.071-.047-.11-.022-.114.064-.01.118-.01.237 0 .356a3.239 3.239 0 0 0 1.994 2.581c.13.056.265.098.403.125a3.64 3.64 0 0 1-1.193.036c-.086-.018-.118.028-.086.11.524 1.426 1.66 1.861 2.494 2.104.114.017.228.017.356.046l-.022.021c-.245.45-1.24.752-1.695.91a6.09 6.09 0 0 1-2.6.334c-.14-.021-.171-.017-.207 0-.035.018 0 .057.04.093A8.514 8.514 0 0 0 9.534 21c3.126.863 6.645.228 8.993-2.107 1.845-1.832 2.493-4.36 2.493-6.891 0-.096.117-.153.185-.203a6.121 6.121 0 0 0 1.222-1.277.374.374 0 0 0 .085-.256c0-.054 0-.043-.067-.014Z" fill="#fff"/></svg>