<svg width="30" height="30" fill="none" xmlns="http://www.w3.org/2000/svg"><rect width="30" height="30" rx="15" fill="#00D95F"/><path d="m7.5 21.945 1.076-4.002a7.4 7.4 0 0 1 1.998-9.502 7.432 7.432 0 0 1 9.706.627 7.406 7.406 0 0 1-3.596 12.507 7.434 7.434 0 0 1-5.142-.709L7.5 21.945Zm4.237-2.576.25.148a6.008 6.008 0 0 0 7.267-.883 5.986 5.986 0 0 0-1.893-9.796 6.009 6.009 0 0 0-7.074 1.879 5.983 5.983 0 0 0-1.24 3.656 5.915 5.915 0 0 0 .877 3.105l.156.258-.601 2.233 2.258-.6Z" fill="#fff"/><path fill-rule="evenodd" clip-rule="evenodd" d="M17.805 15.4a1.24 1.24 0 0 0-1.06-.24c-.275.114-.453.545-.631.76a.263.263 0 0 1-.34.077 4.799 4.799 0 0 1-2.397-2.052.288.288 0 0 1 .038-.397c.198-.197.344-.44.424-.707a1.538 1.538 0 0 0-.195-.846 1.98 1.98 0 0 0-.615-.926.85.85 0 0 0-.91.14 1.871 1.871 0 0 0-.649 1.48c0 .157.02.313.06.465.098.366.25.715.449 1.037.143.246.3.485.47.714a7.221 7.221 0 0 0 2.038 1.887c.399.25.825.453 1.271.605.463.21.974.29 1.479.233a1.777 1.777 0 0 0 1.339-.994.844.844 0 0 0 .063-.508c-.076-.351-.546-.558-.834-.728Z" fill="#fff"/></svg>