<svg width="95" height="25" fill="none" xmlns="http://www.w3.org/2000/svg"><path d="M13.549 1.214c.503-.433 1.11-.667 1.82-.702.71-.052 1.36.087 1.95.416.59.312 1.066.771 1.43 1.378.381.607.529 1.24.442 1.898a5.556 5.556 0 0 0-.754-1.82c-.347-.572-.754-.988-1.222-1.248-.485-.243-1.066-.347-1.742-.312-.659.017-1.3.147-1.924.39ZM8.557 3.19c.19-.503.529-.936 1.014-1.3.503-.364 1.023-.537 1.56-.52.537 0 1.049.182 1.534.546.485.364.815.797.988 1.3a2.908 2.908 0 0 0-1.196-.91c-.468-.208-.91-.312-1.326-.312-.433-.017-.884.078-1.352.286-.468.19-.875.494-1.222.91Zm5.512.13c.364-.277.806-.45 1.326-.52s.98.017 1.378.26c.381.243.667.615.858 1.118.19.485.243.945.156 1.378-.07-.45-.234-.84-.494-1.17a3.28 3.28 0 0 0-.858-.78 3.027 3.027 0 0 0-1.092-.39 2.683 2.683 0 0 0-1.274.104ZM4.215 5.972c-.121-.485-.095-.997.078-1.534.19-.555.494-.97.91-1.248.416-.295.91-.425 1.482-.39.572.035 1.066.19 1.482.468a3.332 3.332 0 0 0-1.43-.052 3.074 3.074 0 0 0-2.08 1.404c-.243.399-.39.85-.442 1.352ZM1.589 9.144C1.12 8.763.826 8.251.705 7.61.566 6.951.6 6.336.809 5.764A3.326 3.326 0 0 1 1.9 4.256a2.583 2.583 0 0 1 1.69-.624 5.398 5.398 0 0 0-1.586.936c-.468.381-.789.806-.962 1.274C.887 6.31.86 6.847.965 7.454c.104.607.312 1.17.624 1.69Zm2.184 1.014c-.381-.156-.71-.425-.988-.806-.26-.399-.381-.797-.364-1.196.035-.399.208-.771.52-1.118.33-.364.685-.598 1.066-.702-.33.243-.572.537-.728.884-.139.33-.217.659-.234.988-.017.312.026.65.13 1.014.104.347.303.659.598.936Zm5.798-1.3.052-.078a1.628 1.628 0 0 1-.208-.312c.087.087.182.156.286.208a3.02 3.02 0 0 1 1.274-.858c.537-.19 1.049-.225 1.534-.104.381.104.737.303 1.066.598l-.104-.208c.277.33.598.563.962.702s.72.208 1.066.208c.347 0 .702-.07 1.066-.208.364-.139.685-.373.962-.702-.139.399-.407.754-.806 1.066-.381.312-.789.468-1.222.468-.468 0-.91-.19-1.326-.572.19.364.303.728.338 1.092a3.105 3.105 0 0 0-.702-.988 2.95 2.95 0 0 0-.936-.65 2.647 2.647 0 0 1-.65.754c-.26.208-.537.33-.832.364-.312.052-.633-.009-.962-.182a2.605 2.605 0 0 1-.78-.65.302.302 0 0 1-.078.052Zm2.782-.546a3.832 3.832 0 0 0-1.274-.052c-.45.052-.884.208-1.3.468.243.156.494.251.754.286a4 4 0 0 0 .78.026 3.73 3.73 0 0 0 .728-.182c.243-.104.46-.243.65-.416a1.956 1.956 0 0 0-.338-.13Zm2.574 1.924c.225-.243.529-.425.91-.546.399-.121.763-.121 1.092 0 .312.139.555.39.728.754.19.364.277.72.26 1.066a1.558 1.558 0 0 0-.52-.78 2.369 2.369 0 0 0-.728-.468 2.927 2.927 0 0 0-.832-.208 1.543 1.543 0 0 0-.91.182Zm-12.09 3.406a1.782 1.782 0 0 1-1.092-.442 2.209 2.209 0 0 1-.702-1.014 2.01 2.01 0 0 1 0-1.196c.121-.433.338-.763.65-.988-.208.33-.347.685-.416 1.066-.087.381-.078.728.026 1.04.087.312.269.607.546.884s.607.494.988.65Zm4.004-.546c-.347.208-.763.303-1.248.286-.485-.017-.875-.165-1.17-.442-.312-.26-.511-.624-.598-1.092-.087-.485-.052-.919.104-1.3-.017.416.06.789.234 1.118.19.33.407.598.65.806.26.208.563.381.91.52.347.139.72.173 1.118.104Zm11.388-1.326c.433.035.858.2 1.274.494.433.295.71.659.832 1.092.139.433.113.893-.078 1.378-.19.468-.468.832-.832 1.092.243-.364.381-.754.416-1.17a2.89 2.89 0 0 0-.104-1.118 2.797 2.797 0 0 0-.546-.988 2.52 2.52 0 0 0-.962-.78Zm2.912 1.17c.503.243.884.633 1.144 1.17.277.52.39 1.066.338 1.638-.035.555-.234 1.075-.598 1.56-.347.468-.789.78-1.326.936.45-.33.832-.72 1.144-1.17.312-.468.494-.919.546-1.352.035-.45-.07-.927-.312-1.43a4.505 4.505 0 0 0-.936-1.352Zm-17.472 2.6c.173-.485.494-.901.962-1.248.468-.347.962-.511 1.482-.494.295 0 .59.07.884.208.312.121.58.295.806.52a2.722 2.722 0 0 1-.572-1.274c.26.468.59.84.988 1.118.416.277.832.46 1.248.546.364-.139.693-.156.988-.052a.654.654 0 0 1 .156.078c.277-.052.546-.13.806-.234.26-.121.511-.277.754-.468-.07.121-.147.234-.234.338.208-.121.416-.19.624-.208a.912.912 0 0 0-.442.442c-.07.19-.13.373-.182.546a6.11 6.11 0 0 0-.13.598c-.017.19.043.381.182.572-.19-.121-.364-.312-.52-.572-.156-.277-.2-.529-.13-.754l.052-.156c-.104.07-.225.139-.364.208.347.381.529.823.546 1.326a1.332 1.332 0 0 0-.494-.676 3.252 3.252 0 0 0-.702-.416 2.66 2.66 0 0 1-1.04.052 2.036 2.036 0 0 1-.416-.156 2.687 2.687 0 0 0-.39.182 1.49 1.49 0 0 1 .234-.234 3.132 3.132 0 0 1-.624-.442c.173.208.303.433.39.676a3.154 3.154 0 0 0-1.17-.858 3.095 3.095 0 0 0-1.248-.286c-.416-.017-.85.07-1.3.26-.433.19-.815.477-1.144.858Zm1.196 3.588c-.399.035-.815-.06-1.248-.286-.433-.225-.737-.529-.91-.91-.173-.364-.2-.78-.078-1.248.121-.468.33-.85.624-1.144a2.322 2.322 0 0 0-.234 1.118c.035.381.121.728.26 1.04.139.295.338.58.598.858.26.26.59.45.988.572Zm14.482-2.886c.208.277.338.624.39 1.04.052.416-.009.763-.182 1.04-.19.295-.485.503-.884.624s-.771.139-1.118.052c.347-.035.641-.147.884-.338.243-.208.433-.433.572-.676.156-.225.277-.485.364-.78a1.659 1.659 0 0 0-.026-.962Zm-2.132 3.016c.017.33-.06.676-.234 1.04-.156.364-.39.607-.702.728-.295.139-.633.147-1.014.026s-.685-.303-.91-.546c.295.156.59.217.884.182.295-.052.563-.13.806-.234a2.79 2.79 0 0 0 .702-.442c.225-.19.381-.442.468-.754Zm-8.19 1.456c-.26.33-.633.572-1.118.728-.468.173-.901.19-1.3.052-.399-.156-.728-.442-.988-.858a2.578 2.578 0 0 1-.416-1.274c.156.399.381.728.676.988.312.243.624.425.936.546.33.104.685.156 1.066.156.399 0 .78-.113 1.144-.338Zm4.914-.104c-.139.45-.425.85-.858 1.196-.416.347-.858.529-1.326.546-.468.017-.927-.139-1.378-.468-.433-.312-.745-.685-.936-1.118.33.347.693.598 1.092.754.416.156.815.225 1.196.208a3.024 3.024 0 0 0 1.17-.312 2.493 2.493 0 0 0 1.04-.806Zm-2.08 2.21c-.364.607-.901 1.04-1.612 1.3a3.91 3.91 0 0 1-2.08.208c-.693-.121-1.326-.433-1.898-.936-.572-.485-.919-1.075-1.04-1.768A6.254 6.254 0 0 0 6.58 23.21c.537.468 1.083.754 1.638.858.555.104 1.161.035 1.82-.208a5.92 5.92 0 0 0 1.82-1.04Zm8.353-19.214c-.017-.659.182-1.265.598-1.82.433-.572.953-.988 1.56-1.248a3.627 3.627 0 0 1 1.976-.182c.71.104 1.282.399 1.716.884A5.504 5.504 0 0 0 24.19.642c-.642-.104-1.213-.052-1.716.156-.486.19-.936.555-1.352 1.092a5.83 5.83 0 0 0-.91 1.716Zm12.428 1.17a2.745 2.745 0 0 1 .104-1.82c.26-.607.641-1.1 1.144-1.482.485-.364 1.057-.58 1.716-.65.676-.07 1.274.07 1.794.416a5.5 5.5 0 0 0-1.846-.104c-.607.07-1.11.251-1.508.546-.399.295-.72.728-.962 1.3a5.796 5.796 0 0 0-.442 1.794Zm-10.478-1.17c.104-.416.338-.797.702-1.144.364-.364.762-.563 1.196-.598.433-.052.858.06 1.274.338.433.26.745.59.936.988a2.425 2.425 0 0 0-1.066-.598 2.698 2.698 0 0 0-1.092-.13 3.82 3.82 0 0 0-1.04.338 2.248 2.248 0 0 0-.91.806Zm13.364.182c.07-.347.242-.685.52-1.014.277-.347.59-.546.936-.598.364-.07.728.009 1.092.234.381.208.667.468.858.78a1.895 1.895 0 0 0-.91-.416 2.825 2.825 0 0 0-.936 0 3.039 3.039 0 0 0-.858.312c-.295.156-.529.39-.702.702Zm-8.814-.598c.346-.104.736-.095 1.17.026.433.104.762.312.988.624.225.295.32.667.286 1.118-.017.45-.139.832-.364 1.144.104-.381.104-.728 0-1.04a3.04 3.04 0 0 0-.416-.858 3.162 3.162 0 0 0-.702-.65 1.865 1.865 0 0 0-.962-.364Zm12.636 0c.277-.052.59-.026.936.078.346.104.598.277.754.52.156.243.2.546.13.91s-.2.659-.39.884a1.34 1.34 0 0 0 .026-.78 2.836 2.836 0 0 0-.286-.702 2.703 2.703 0 0 0-.468-.546 1.31 1.31 0 0 0-.702-.364Zm-5.694 3.692a2.233 2.233 0 0 1-.468-1.092c-.052-.45.017-.84.208-1.17.19-.33.503-.563.936-.702.433-.156.832-.2 1.196-.13-.382.07-.702.217-.962.442-.26.208-.468.442-.624.702a3.33 3.33 0 0 0-.364.91c-.07.33-.044.676.078 1.04Zm-11.492.78c-.364-.139-.694-.381-.988-.728-.277-.347-.416-.71-.416-1.092 0-.381.139-.745.416-1.092.294-.364.624-.607.988-.728a1.997 1.997 0 0 0-.624.858 3.19 3.19 0 0 0-.156.962c0 .295.052.607.156.936.121.33.33.624.624.884Zm18.616-1.664c.485.173.901.494 1.248.962.346.468.52.953.52 1.456 0 .52-.173 1.014-.52 1.482-.347.468-.763.789-1.248.962.398-.33.684-.71.858-1.144.19-.45.286-.884.286-1.3 0-.399-.095-.815-.286-1.248-.174-.45-.46-.84-.858-1.17Zm-9.724 3.796a1.914 1.914 0 0 1-.156-.442l-.078.078c.017-.052.035-.095.052-.13a2.23 2.23 0 0 1 0-.962 2.451 2.451 0 0 0-.312-.78 2.639 2.639 0 0 0-.624-.702 1.642 1.642 0 0 0-.91-.416c.346-.07.728-.035 1.144.104.416.139.72.373.91.702.07.104.121.217.156.338h.026c.242-.277.58-.442 1.014-.494.433-.052.823 0 1.17.156a1.6 1.6 0 0 0-.988.208 3.122 3.122 0 0 0-.754.546 2.932 2.932 0 0 0-.52.806 1.706 1.706 0 0 0-.13.988ZM42.728 7.35c.641.225 1.144.65 1.508 1.274.364.607.546 1.248.546 1.924 0 .676-.182 1.326-.546 1.95a2.928 2.928 0 0 1-1.508 1.274c.52-.433.944-.945 1.274-1.534.346-.59.52-1.153.52-1.69 0-.537-.173-1.092-.52-1.664-.33-.59-.754-1.1-1.274-1.534Zm-20.566 5.278c-.45-.173-.85-.477-1.196-.91-.33-.433-.494-.893-.494-1.378 0-.468.165-.919.494-1.352.346-.45.745-.763 1.196-.936a2.893 2.893 0 0 0-.806 1.092c-.174.416-.26.815-.26 1.196s.087.78.26 1.196c.173.416.442.78.806 1.092Zm-1.95 2.912a2.676 2.676 0 0 1-1.378-1.17 3.41 3.41 0 0 1-.52-1.794c0-.624.173-1.213.52-1.768.33-.572.788-.97 1.378-1.196a5.377 5.377 0 0 0-1.17 1.404c-.312.537-.468 1.057-.468 1.56 0 .503.156 1.023.468 1.56a5.377 5.377 0 0 0 1.17 1.404Zm20.566-4.264c.364.139.693.39.988.754.294.347.442.72.442 1.118 0 .381-.148.754-.442 1.118-.295.364-.624.615-.988.754.294-.26.503-.555.624-.884.121-.347.182-.676.182-.988 0-.312-.06-.633-.182-.962a2.149 2.149 0 0 0-.624-.91Zm-18.616 6.422c-.468-.156-.875-.46-1.222-.91-.33-.45-.494-.919-.494-1.404 0-.503.164-.97.494-1.404.346-.45.754-.763 1.222-.936a2.75 2.75 0 0 0-.832 1.118c-.173.416-.26.823-.26 1.222 0 .381.087.789.26 1.222.173.416.45.78.832 1.092Zm13.286.546c-.434-.173-.815-.468-1.144-.884-.33-.416-.512-.858-.546-1.326-.312 0-.59-.052-.832-.156.277.017.554-.026.832-.13.034-.468.216-.901.546-1.3.33-.416.71-.702 1.144-.858a2.78 2.78 0 0 0-.702.858 4.061 4.061 0 0 0-.338.936c.139-.087.26-.19.364-.312a2.84 2.84 0 0 0 .52-.832c.156-.33.208-.685.156-1.066.173.347.242.754.208 1.222-.017.45-.156.815-.416 1.092a1.82 1.82 0 0 1-.884.468c.017.399.112.806.286 1.222.173.399.442.754.806 1.066Zm-6.318-3.796c.017.19-.009.416-.078.676-.07.243-.19.407-.364.494-.173.087-.381.078-.624-.026a1.806 1.806 0 0 1-.572-.364c.173.087.33.095.468.026.156-.07.303-.139.442-.208.139-.052.277-.113.416-.182a.646.646 0 0 0 .312-.416Zm3.484 1.742c-.26.277-.607.485-1.04.624-.416.121-.798.104-1.144-.052-.33-.139-.598-.407-.806-.806-.208-.399-.303-.78-.286-1.144.121.347.303.633.546.858.26.225.529.399.806.52.26.121.563.2.91.234.346.017.684-.06 1.014-.234Zm8.164-.754c.312.104.598.312.858.624.26.295.39.598.39.91 0 .33-.13.65-.39.962-.26.295-.546.494-.858.598a1.57 1.57 0 0 0 .494-.728c.087-.295.13-.572.13-.832s-.044-.529-.13-.806a1.566 1.566 0 0 0-.494-.728Zm-13.286.208c.33.121.633.347.91.676.277.33.416.676.416 1.04 0 .347-.139.685-.416 1.014-.277.33-.58.555-.91.676.277-.225.46-.494.546-.806a2.8 2.8 0 0 0 .156-.884c0-.295-.052-.59-.156-.884a1.708 1.708 0 0 0-.546-.832ZM24.32 20.61a2.36 2.36 0 0 1-1.118.104c-.399-.07-.71-.234-.936-.494-.225-.26-.347-.598-.364-1.014 0-.416.086-.78.26-1.092a1.79 1.79 0 0 0 .104.962c.121.277.277.52.468.728.173.208.39.399.65.572.277.156.59.234.936.234Zm12.87 0c-.26.104-.563.139-.91.104-.347-.035-.607-.156-.78-.364-.19-.208-.286-.485-.286-.832a1.95 1.95 0 0 1 .234-.884c-.035.277 0 .529.104.754.121.208.26.39.416.546.138.173.303.33.494.468.208.139.45.208.728.208Zm3.588-1.664c.052.381-.009.78-.182 1.196-.173.399-.425.685-.754.858-.347.173-.737.217-1.17.13-.433-.087-.789-.26-1.066-.52.346.139.684.182 1.014.13a3.11 3.11 0 0 0 .936-.286c.26-.139.503-.33.728-.572.242-.26.407-.572.494-.936Zm-13.286.52c.017.312-.06.641-.234.988-.174.347-.407.58-.702.702-.277.121-.598.113-.962-.026-.364-.121-.65-.295-.858-.52.277.139.555.19.832.156.277-.035.528-.095.754-.182.242-.104.477-.234.702-.39a1.34 1.34 0 0 0 .468-.728Zm1.846 1.482c0 .537-.182 1.023-.546 1.456-.364.433-.789.728-1.274.884-.503.173-1.032.2-1.586.078a2.233 2.233 0 0 1-1.3-.806c.433.277.901.46 1.404.546.52.104.98.087 1.378-.052.398-.139.771-.399 1.118-.78.346-.381.615-.823.806-1.326ZM40.05 22.56c-.364.572-.901.97-1.612 1.196-.694.243-1.37.286-2.028.13-.676-.139-1.283-.468-1.82-.988-.538-.503-.85-1.092-.936-1.768a5.83 5.83 0 0 0 1.222 1.612c.52.485 1.049.789 1.586.91.537.104 1.135.052 1.794-.156a5.718 5.718 0 0 0 1.794-.936ZM55.037 1.24a2.364 2.364 0 0 1 1.586-.078c.572.156 1.04.433 1.404.832.382.416.624.91.728 1.482.122.572.052 1.1-.208 1.586a4.556 4.556 0 0 0-.078-1.612c-.121-.52-.329-.945-.624-1.274-.294-.312-.702-.546-1.222-.702a4.518 4.518 0 0 0-1.586-.234ZM49.5 3.19c.122-.347.347-.659.676-.936.347-.277.702-.416 1.066-.416.364 0 .711.139 1.04.416.347.277.581.59.702.936a1.722 1.722 0 0 0-.832-.572 2.87 2.87 0 0 0-.91-.156 2.87 2.87 0 0 0-.91.156 1.903 1.903 0 0 0-.832.572Zm3.9 0c.208-.243.494-.433.858-.572.364-.139.694-.147.988-.026.295.104.529.33.702.676.191.347.286.676.286.988a1.661 1.661 0 0 0-.52-.702 2.57 2.57 0 0 0-1.482-.546 1.331 1.331 0 0 0-.832.182Zm-5.564 3.302c-.26-.277-.442-.641-.546-1.092-.104-.45-.069-.85.104-1.196.174-.347.468-.607.884-.78.434-.19.841-.269 1.222-.234a1.94 1.94 0 0 0-.962.52 3.004 3.004 0 0 0-.572.78 3.129 3.129 0 0 0-.286.962c-.052.347 0 .693.156 1.04Zm-3.354 3.744c-.485-.399-.797-.927-.936-1.586a3.516 3.516 0 0 1 .104-1.898c.208-.59.572-1.1 1.092-1.534.52-.433 1.101-.65 1.742-.65a5.367 5.367 0 0 0-1.638.962c-.468.399-.788.84-.962 1.326-.156.468-.182 1.014-.078 1.638.122.624.347 1.205.676 1.742Zm11.882-5.59c.503 0 .988.165 1.456.494.486.312.806.702.962 1.17.174.468.165.98-.026 1.534-.173.537-.45.97-.832 1.3a2.8 2.8 0 0 0 .416-1.352 3.36 3.36 0 0 0-.13-1.274 3.347 3.347 0 0 0-.676-1.092 2.899 2.899 0 0 0-1.17-.78ZM46.145 11.38c-.398-.312-.684-.737-.858-1.274-.173-.555-.173-1.066 0-1.534.156-.485.468-.884.936-1.196.486-.312.98-.477 1.482-.494a3.14 3.14 0 0 0-1.17.806c-.312.347-.537.71-.676 1.092a3.52 3.52 0 0 0-.156 1.248c.035.468.182.919.442 1.352Zm13.702-2.6c.728 0 1.387.251 1.976.754.607.503 1.032 1.1 1.274 1.794a4.04 4.04 0 0 1 .13 2.184c-.156.763-.511 1.37-1.066 1.82a6.365 6.365 0 0 0 .754-2.002c.156-.728.13-1.37-.078-1.924-.19-.555-.563-1.066-1.118-1.534a6.322 6.322 0 0 0-1.872-1.092Zm-7.462 5.174a1.97 1.97 0 0 1-.494-.754c-.433.347-.901.529-1.404.546a2.526 2.526 0 0 0 1.274-1.118.996.996 0 0 1 .104-.546.884.884 0 0 1 .26-.364c.07-.295.087-.59.052-.884a.61.61 0 0 1-.208-.13c-.173-.173-.26-.407-.26-.702 0-.312.052-.572.156-.78a.89.89 0 0 0 .156.598c.122.156.252.303.39.442.122.121.26.251.416.39a.939.939 0 0 0 .624.156 1.758 1.758 0 0 1-.806.13c.035.139.061.277.078.416.295-.121.572-.173.832-.156a1.49 1.49 0 0 0-.468.234 1.81 1.81 0 0 0-.364.364c0 .121-.017.243-.052.364a2.275 2.275 0 0 1-.416.702 2.776 2.776 0 0 0-.052.546c.018.173.078.355.182.546Zm5.668-4.42a2.1 2.1 0 0 1 1.118.338c.382.225.633.511.754.858.122.347.104.728-.052 1.144-.138.416-.355.745-.65.988.191-.33.278-.659.26-.988 0-.347-.043-.659-.13-.936a2.952 2.952 0 0 0-.468-.806 1.724 1.724 0 0 0-.832-.598Zm-13.728 7.02c-.416-.33-.71-.78-.884-1.352-.173-.59-.173-1.135 0-1.638.174-.503.512-.919 1.014-1.248.503-.347 1.014-.529 1.534-.546a3.29 3.29 0 0 0-1.248.858c-.346.364-.589.745-.728 1.144-.138.399-.19.85-.156 1.352.035.503.191.98.468 1.43Zm15.028-3.302c.486 0 .962.156 1.43.468.486.312.806.702.962 1.17.156.45.148.945-.026 1.482-.173.537-.45.962-.832 1.274.26-.416.399-.85.416-1.3a3.04 3.04 0 0 0-.156-1.274 2.814 2.814 0 0 0-.65-1.04 2.696 2.696 0 0 0-1.144-.78ZM43.13 19.986c-.26-.208-.459-.503-.598-.884-.156-.381-.182-.728-.078-1.04.122-.33.356-.59.702-.78a2.24 2.24 0 0 1 1.04-.338 1.658 1.658 0 0 0-.754.572 2.982 2.982 0 0 0-.39.728c-.086.26-.138.546-.156.858-.017.295.061.59.234.884Zm17.914-1.95c.243.07.486.225.728.468.26.243.399.494.416.754 0 .277-.112.546-.338.806-.208.26-.442.442-.702.546.208-.19.33-.399.364-.624a4.81 4.81 0 0 0 .052-.676 3.108 3.108 0 0 0-.13-.676.988.988 0 0 0-.39-.598Zm-6.76.208c-.156.399-.424.754-.806 1.066-.381.295-.78.442-1.196.442-.433 0-.84-.147-1.222-.442-.381-.312-.641-.667-.78-1.066.26.33.572.563.936.702.364.121.72.182 1.066.182.33 0 .676-.06 1.04-.182.364-.139.685-.373.962-.702Zm2.028 2.184c-.277.087-.589.095-.936.026-.346-.07-.606-.217-.78-.442-.173-.225-.242-.511-.208-.858.035-.364.13-.667.286-.91a1.48 1.48 0 0 0 .052.78c.104.225.226.433.364.624.139.173.304.347.494.52.208.156.451.243.728.26Zm-6.448-2.184c.156.277.234.615.234 1.014.018.399-.078.72-.286.962-.19.243-.485.399-.884.468a2.282 2.282 0 0 1-1.04-.078c.33 0 .607-.078.832-.234.243-.173.451-.355.624-.546.174-.208.312-.442.416-.702.122-.277.156-.572.104-.884Zm-4.732 4.316a2.212 2.212 0 0 1-1.404.468c-.537 0-1.014-.13-1.43-.39a2.488 2.488 0 0 1-.988-1.118 2.195 2.195 0 0 1-.234-1.43c.07.485.226.945.468 1.378.243.433.538.754.884.962.347.208.763.32 1.248.338a4.12 4.12 0 0 0 1.456-.208Zm14.69 0c-.433.485-.988.78-1.664.884a3.497 3.497 0 0 1-1.898-.208c-.589-.243-1.092-.641-1.508-1.196-.416-.537-.615-1.127-.598-1.768a5.83 5.83 0 0 0 .884 1.69c.399.503.841.85 1.326 1.04.468.19 1.023.234 1.664.13a5.307 5.307 0 0 0 1.794-.572Zm-12.35-1.95c-.173.433-.485.806-.936 1.118-.45.312-.91.45-1.378.416-.468-.017-.91-.208-1.326-.572-.416-.347-.693-.745-.832-1.196.278.381.616.659 1.014.832.399.19.789.295 1.17.312.382.017.78-.043 1.196-.182a2.53 2.53 0 0 0 1.092-.728Zm13.286 0a2.43 2.43 0 0 1-.806 1.04c-.381.312-.788.468-1.222.468-.416 0-.823-.156-1.222-.468-.381-.295-.641-.641-.78-1.04.278.312.598.537.962.676s.711.208 1.04.208c.347 0 .702-.07 1.066-.208.364-.121.685-.347.962-.676Zm5.9-19.37c.329-.45.78-.745 1.351-.884.59-.156 1.144-.156 1.664 0a3.14 3.14 0 0 1 1.404.936c.399.433.607.927.624 1.482a4.265 4.265 0 0 0-.884-1.378c-.381-.399-.788-.659-1.222-.78-.416-.139-.892-.139-1.43 0-.537.121-1.04.33-1.508.624Zm.207 1.95c.243-.243.564-.425.962-.546.399-.121.754-.113 1.066.026.33.139.581.399.754.78.174.381.252.745.234 1.092a1.552 1.552 0 0 0-.494-.806 3.602 3.602 0 0 0-.728-.494 3.275 3.275 0 0 0-.858-.208 1.5 1.5 0 0 0-.936.156Zm-2.808 1.248c-.034-.277.009-.58.13-.91.122-.347.304-.58.546-.702.26-.139.555-.156.884-.052.347.087.624.225.832.416a1.14 1.14 0 0 0-.754-.052c-.242.052-.468.13-.676.234-.19.104-.381.243-.572.416a1.18 1.18 0 0 0-.39.65Zm0 3.302c-.329-.104-.632-.312-.91-.624-.26-.33-.39-.667-.39-1.014s.13-.676.39-.988c.278-.33.581-.555.91-.676a1.81 1.81 0 0 0-.546.806c-.086.295-.13.58-.13.858 0 .277.044.572.13.884.104.295.286.546.546.754Zm5.824-2.782c.347.121.659.355.936.702.295.33.442.685.442 1.066 0 .364-.147.72-.442 1.066-.277.33-.589.563-.936.702.278-.243.468-.52.572-.832.122-.33.182-.641.182-.936 0-.295-.06-.598-.182-.91a1.878 1.878 0 0 0-.572-.858Zm-5.824 6.734c-.346-.121-.667-.347-.962-.676-.277-.347-.416-.71-.416-1.092 0-.364.139-.71.416-1.04.295-.347.616-.59.962-.728a2.088 2.088 0 0 0-.598.858 2.87 2.87 0 0 0-.156.91c0 .295.052.607.156.936.122.312.321.59.598.832Zm-1.95 2.6c-.606-.225-1.083-.633-1.43-1.222-.364-.59-.546-1.205-.546-1.846s.182-1.257.546-1.846c.347-.59.824-.997 1.43-1.222a5.814 5.814 0 0 0-1.222 1.456c-.329.555-.494 1.092-.494 1.612s.165 1.057.494 1.612c.33.555.737 1.04 1.222 1.456ZM69.88 8.91c.312.104.598.312.858.624.278.312.416.633.416.962 0 .347-.138.676-.416.988-.26.312-.546.52-.858.624.26-.208.434-.46.52-.754.087-.295.13-.58.13-.858 0-.26-.043-.537-.13-.832a1.492 1.492 0 0 0-.52-.754Zm1.95 4.264a2.532 2.532 0 0 1 1.3-1.092 3.273 3.273 0 0 1 1.716-.208 3.174 3.174 0 0 1 1.56.78c.468.399.754.884.858 1.456a4.733 4.733 0 0 0-1.118-1.3c-.433-.364-.875-.59-1.326-.676-.468-.07-.97-.009-1.508.182a4.73 4.73 0 0 0-1.482.858Zm-7.774 2.678c-.364-.139-.693-.39-.988-.754-.294-.364-.442-.737-.442-1.118 0-.399.148-.771.442-1.118.295-.364.624-.615.988-.754a2.15 2.15 0 0 0-.624.91c-.121.33-.182.65-.182.962 0 .312.061.641.182.988.122.33.33.624.624.884Zm5.824-3.328c.399 0 .789.121 1.17.364.399.243.668.555.806.936.139.364.13.771-.026 1.222-.156.433-.39.771-.702 1.014.208-.347.304-.693.286-1.04 0-.364-.052-.693-.156-.988a2.887 2.887 0 0 0-.494-.858 1.97 1.97 0 0 0-.884-.65Zm1.664 3.536c.156-.416.434-.78.832-1.092.416-.33.85-.494 1.3-.494.451 0 .876.165 1.274.494.416.312.702.676.858 1.092a2.404 2.404 0 0 0-1.014-.728 2.94 2.94 0 0 0-1.118-.234c-.364 0-.736.078-1.118.234a2.41 2.41 0 0 0-1.014.728Zm4.68 0c.33-.052.676-.017 1.04.104.382.121.65.33.806.624.174.277.217.615.13 1.014-.069.381-.208.693-.416.936.104-.295.122-.58.052-.858a3.168 3.168 0 0 0-.286-.78 3.563 3.563 0 0 0-.52-.65 1.417 1.417 0 0 0-.806-.39Zm-12.168 4.238c-.398-.139-.754-.399-1.066-.78-.312-.399-.468-.815-.468-1.248 0-.416.156-.815.468-1.196.312-.399.668-.676 1.066-.832a2.31 2.31 0 0 0-.702.988c-.138.364-.208.71-.208 1.04 0 .347.07.702.208 1.066.139.364.373.685.702.962Zm13.728-1.144c.018.416-.095.84-.338 1.274-.242.416-.554.693-.936.832-.381.156-.806.165-1.274.026a2.347 2.347 0 0 1-1.092-.676c.364.19.737.286 1.118.286a3.01 3.01 0 0 0 1.014-.208c.312-.121.607-.303.884-.546.295-.26.503-.59.624-.988Zm-8.528 1.456c-.173.485-.494.901-.962 1.248-.468.347-.962.52-1.482.52s-1.014-.173-1.482-.52c-.468-.347-.788-.763-.962-1.248.33.399.711.685 1.144.858.451.19.884.286 1.3.286.416 0 .841-.095 1.274-.286.451-.173.841-.46 1.17-.858Zm4.472 0c-.138.399-.407.754-.806 1.066-.381.312-.788.468-1.222.468-.433 0-.849-.156-1.248-.468-.381-.312-.641-.667-.78-1.066.278.33.598.563.962.702s.72.208 1.066.208c.347 0 .702-.07 1.066-.208.364-.139.685-.373.962-.702Zm4.368 1.872c-.208.624-.615 1.118-1.222 1.482a3.743 3.743 0 0 1-1.924.598c-.658 0-1.3-.182-1.924-.546a2.819 2.819 0 0 1-1.274-1.456c.434.503.936.919 1.508 1.248.59.33 1.153.494 1.69.494.538-.017 1.092-.2 1.664-.546a5.828 5.828 0 0 0 1.482-1.274Zm-6.344.078c-.225.641-.65 1.144-1.274 1.508a3.817 3.817 0 0 1-1.95.546 3.817 3.817 0 0 1-1.95-.546c-.624-.364-1.048-.867-1.274-1.508.434.52.945.945 1.534 1.274.59.347 1.153.52 1.69.52.538 0 1.101-.173 1.69-.52a5.424 5.424 0 0 0 1.534-1.274Zm11.18-21.32c.33-.45.78-.745 1.352-.884.59-.156 1.144-.156 1.664 0a3.14 3.14 0 0 1 1.404.936c.398.433.606.927.624 1.482a4.265 4.265 0 0 0-.884-1.378c-.382-.399-.789-.659-1.222-.78-.416-.139-.893-.139-1.43 0-.538.121-1.04.33-1.508.624Zm.208 1.95c.242-.243.563-.425.962-.546.398-.121.754-.113 1.066.026.33.139.58.399.754.78.173.381.251.745.234 1.092a1.552 1.552 0 0 0-.494-.806 3.602 3.602 0 0 0-.728-.494 3.275 3.275 0 0 0-.858-.208 1.5 1.5 0 0 0-.936.156Zm-2.808 1.248c-.035-.277.008-.58.13-.91.121-.347.303-.58.546-.702.26-.139.554-.156.884-.052.346.087.624.225.832.416a1.14 1.14 0 0 0-.754-.052c-.243.052-.468.13-.676.234-.19.104-.382.243-.572.416a1.18 1.18 0 0 0-.39.65Zm0 3.302c-.33-.104-.633-.312-.91-.624-.26-.33-.39-.667-.39-1.014s.13-.676.39-.988c.277-.33.58-.555.91-.676a1.81 1.81 0 0 0-.546.806 3.02 3.02 0 0 0-.13.858c0 .277.043.572.13.884.104.295.286.546.546.754Zm5.824-2.782c.346.121.658.355.936.702.294.33.442.685.442 1.066 0 .364-.148.72-.442 1.066a2.39 2.39 0 0 1-.936.702c.277-.243.468-.52.572-.832a2.72 2.72 0 0 0 .182-.936c0-.295-.06-.598-.182-.91a1.878 1.878 0 0 0-.572-.858Zm-5.824 6.734c-.347-.121-.668-.347-.962-.676-.278-.347-.416-.71-.416-1.092 0-.364.138-.71.416-1.04.294-.347.615-.59.962-.728a2.088 2.088 0 0 0-.598.858 2.87 2.87 0 0 0-.156.91c0 .295.052.607.156.936.121.312.32.59.598.832Zm-1.95 2.6c-.607-.225-1.084-.633-1.43-1.222-.364-.59-.546-1.205-.546-1.846s.182-1.257.546-1.846c.346-.59.823-.997 1.43-1.222a5.814 5.814 0 0 0-1.222 1.456c-.33.555-.494 1.092-.494 1.612s.164 1.057.494 1.612c.33.555.736 1.04 1.222 1.456Zm7.774-5.382c.312.104.598.312.858.624.277.312.416.633.416.962 0 .347-.139.676-.416.988-.26.312-.546.52-.858.624.26-.208.433-.46.52-.754.086-.295.13-.58.13-.858 0-.26-.044-.537-.13-.832a1.492 1.492 0 0 0-.52-.754Zm1.95 4.264a2.532 2.532 0 0 1 1.3-1.092 3.273 3.273 0 0 1 1.716-.208 3.174 3.174 0 0 1 1.56.78c.468.399.754.884.858 1.456a4.733 4.733 0 0 0-1.118-1.3c-.434-.364-.876-.59-1.326-.676-.468-.07-.97-.009-1.508.182a4.73 4.73 0 0 0-1.482.858Zm-7.774 2.678c-.364-.139-.694-.39-.988-.754-.295-.364-.442-.737-.442-1.118 0-.399.147-.771.442-1.118.294-.364.624-.615.988-.754a2.15 2.15 0 0 0-.624.91c-.122.33-.182.65-.182.962 0 .312.06.641.182.988.121.33.33.624.624.884Zm5.824-3.328c.398 0 .788.121 1.17.364.398.243.667.555.806.936.138.364.13.771-.026 1.222-.156.433-.39.771-.702 1.014.208-.347.303-.693.286-1.04 0-.364-.052-.693-.156-.988a2.887 2.887 0 0 0-.494-.858 1.97 1.97 0 0 0-.884-.65Zm1.664 3.536c.156-.416.433-.78.832-1.092.416-.33.85-.494 1.3-.494.45 0 .875.165 1.274.494.416.312.702.676.858 1.092a2.404 2.404 0 0 0-1.014-.728 2.94 2.94 0 0 0-1.118-.234 2.94 2.94 0 0 0-1.118.234c-.382.139-.72.381-1.014.728Zm4.68 0c.33-.052.676-.017 1.04.104.381.121.65.33.806.624.173.277.216.615.13 1.014-.07.381-.208.693-.416.936.104-.295.121-.58.052-.858a3.168 3.168 0 0 0-.286-.78 3.563 3.563 0 0 0-.52-.65 1.417 1.417 0 0 0-.806-.39Zm-12.168 4.238c-.399-.139-.754-.399-1.066-.78-.312-.399-.468-.815-.468-1.248 0-.416.156-.815.468-1.196.312-.399.667-.676 1.066-.832a2.31 2.31 0 0 0-.702.988c-.139.364-.208.71-.208 1.04 0 .347.07.702.208 1.066.138.364.372.685.702.962Zm13.728-1.144c.017.416-.096.84-.338 1.274-.243.416-.555.693-.936.832-.382.156-.806.165-1.274.026a2.347 2.347 0 0 1-1.092-.676c.364.19.736.286 1.118.286a3.01 3.01 0 0 0 1.014-.208c.312-.121.606-.303.884-.546.294-.26.502-.59.624-.988Zm-8.528 1.456c-.174.485-.494.901-.962 1.248-.468.347-.962.52-1.482.52s-1.014-.173-1.482-.52c-.468-.347-.789-.763-.962-1.248.33.399.71.685 1.144.858.45.19.884.286 1.3.286.416 0 .84-.095 1.274-.286.45-.173.84-.46 1.17-.858Zm4.472 0c-.139.399-.408.754-.806 1.066-.382.312-.789.468-1.222.468-.434 0-.85-.156-1.248-.468-.382-.312-.642-.667-.78-1.066.277.33.598.563.962.702s.72.208 1.066.208a3 3 0 0 0 1.066-.208c.364-.139.684-.373.962-.702Zm4.368 1.872c-.208.624-.616 1.118-1.222 1.482a3.743 3.743 0 0 1-1.924.598c-.659 0-1.3-.182-1.924-.546a2.819 2.819 0 0 1-1.274-1.456c.433.503.936.919 1.508 1.248.59.33 1.152.494 1.69.494.537-.017 1.092-.2 1.664-.546a5.828 5.828 0 0 0 1.482-1.274Zm-6.344.078c-.226.641-.65 1.144-1.274 1.508a3.817 3.817 0 0 1-1.95.546 3.817 3.817 0 0 1-1.95-.546c-.624-.364-1.049-.867-1.274-1.508.433.52.944.945 1.534 1.274.59.347 1.152.52 1.69.52.537 0 1.1-.173 1.69-.52.59-.33 1.1-.754 1.534-1.274Z" fill="#FE0000"/></svg>