<svg width="95" height="25" viewBox="0 0 95 25" fill="none" xmlns="http://www.w3.org/2000/svg">
<path d="M13.5489 1.214C14.0516 0.780666 14.6582 0.546666 15.3689 0.511999C16.0796 0.459999 16.7296 0.598666 17.3189 0.928C17.9082 1.24 18.3849 1.69933 18.7489 2.306C19.1302 2.91267 19.2776 3.54533 19.1909 4.204C19.0522 3.56267 18.8009 2.956 18.4369 2.384C18.0902 1.812 17.6829 1.396 17.2149 1.136C16.7296 0.893332 16.1489 0.789332 15.4729 0.823999C14.8142 0.841333 14.1729 0.971332 13.5489 1.214ZM8.55689 3.19C8.74756 2.68733 9.08556 2.254 9.57089 1.89C10.0736 1.526 10.5936 1.35267 11.1309 1.37C11.6682 1.37 12.1796 1.552 12.6649 1.916C13.1502 2.28 13.4796 2.71333 13.6529 3.216C13.3236 2.8 12.9249 2.49667 12.4569 2.306C11.9889 2.098 11.5469 1.994 11.1309 1.994C10.6976 1.97667 10.2469 2.072 9.77889 2.28C9.31089 2.47067 8.90356 2.774 8.55689 3.19ZM14.0689 3.32C14.4329 3.04267 14.8749 2.86933 15.3949 2.8C15.9149 2.73067 16.3742 2.81733 16.7729 3.06C17.1542 3.30267 17.4402 3.67533 17.6309 4.178C17.8216 4.66333 17.8736 5.12267 17.7869 5.556C17.7176 5.10533 17.5529 4.71533 17.2929 4.386C17.0329 4.05667 16.7469 3.79667 16.4349 3.606C16.1229 3.41533 15.7589 3.28533 15.3429 3.216C14.9269 3.14667 14.5022 3.18133 14.0689 3.32ZM4.21489 5.972C4.09356 5.48667 4.11956 4.97533 4.29289 4.438C4.48356 3.88333 4.78689 3.46733 5.20289 3.19C5.61889 2.89533 6.11289 2.76533 6.68489 2.8C7.25689 2.83467 7.75089 2.99067 8.16689 3.268C7.68156 3.14667 7.20489 3.12933 6.73689 3.216C6.28622 3.30267 5.89622 3.45867 5.56689 3.684C5.22022 3.90933 4.91689 4.22133 4.65689 4.62C4.41422 5.01867 4.26689 5.46933 4.21489 5.972ZM1.58889 9.144C1.12089 8.76267 0.826224 8.25133 0.704891 7.61C0.566224 6.95133 0.600891 6.336 0.808891 5.764C1.01689 5.17467 1.38089 4.672 1.90089 4.256C2.40356 3.84 2.96689 3.632 3.59089 3.632C3.00156 3.85733 2.47289 4.16933 2.00489 4.568C1.53689 4.94933 1.21622 5.374 1.04289 5.842C0.886891 6.31 0.860891 6.84733 0.964891 7.454C1.06889 8.06067 1.27689 8.624 1.58889 9.144ZM3.77289 10.158C3.39156 10.002 3.06222 9.73333 2.78489 9.352C2.52489 8.95333 2.40356 8.55467 2.42089 8.156C2.45556 7.75733 2.62889 7.38467 2.94089 7.038C3.27022 6.674 3.62556 6.44 4.00689 6.336C3.67756 6.57867 3.43489 6.87333 3.27889 7.22C3.14022 7.54933 3.06222 7.87867 3.04489 8.208C3.02756 8.52 3.07089 8.858 3.17489 9.222C3.27889 9.56867 3.47822 9.88067 3.77289 10.158ZM9.57089 8.858L9.62289 8.78C9.53622 8.676 9.46689 8.572 9.41489 8.468C9.50156 8.55467 9.59689 8.624 9.70089 8.676C10.0302 8.29467 10.4549 8.00867 10.9749 7.818C11.5122 7.62733 12.0236 7.59267 12.5089 7.714C12.8902 7.818 13.2456 8.01733 13.5749 8.312C13.5402 8.24267 13.5056 8.17333 13.4709 8.104C13.7482 8.43333 14.0689 8.66733 14.4329 8.806C14.7969 8.94467 15.1522 9.014 15.4989 9.014C15.8456 9.014 16.2009 8.94467 16.5649 8.806C16.9289 8.66733 17.2496 8.43333 17.5269 8.104C17.3882 8.50267 17.1196 8.858 16.7209 9.17C16.3396 9.482 15.9322 9.638 15.4989 9.638C15.0309 9.638 14.5889 9.44733 14.1729 9.066C14.3636 9.43 14.4762 9.794 14.5109 10.158C14.3376 9.77667 14.1036 9.44733 13.8089 9.17C13.5142 8.87533 13.2022 8.65867 12.8729 8.52C12.7169 8.79733 12.5002 9.04867 12.2229 9.274C11.9629 9.482 11.6856 9.60333 11.3909 9.638C11.0789 9.69 10.7582 9.62933 10.4289 9.456C10.1169 9.28267 9.85689 9.066 9.64889 8.806C9.63156 8.82333 9.60556 8.84067 9.57089 8.858ZM12.3529 8.312C11.9716 8.22533 11.5469 8.208 11.0789 8.26C10.6282 8.312 10.1949 8.468 9.77889 8.728C10.0216 8.884 10.2729 8.97933 10.5329 9.014C10.8102 9.04867 11.0702 9.05733 11.3129 9.04C11.5556 9.00533 11.7982 8.94467 12.0409 8.858C12.2836 8.754 12.5002 8.61533 12.6909 8.442C12.5869 8.39 12.4742 8.34667 12.3529 8.312ZM14.9269 10.236C15.1522 9.99333 15.4556 9.81133 15.8369 9.69C16.2356 9.56867 16.5996 9.56867 16.9289 9.69C17.2409 9.82867 17.4836 10.08 17.6569 10.444C17.8476 10.808 17.9342 11.1633 17.9169 11.51C17.8129 11.1807 17.6396 10.9207 17.3969 10.73C17.1716 10.522 16.9289 10.366 16.6689 10.262C16.4262 10.158 16.1489 10.0887 15.8369 10.054C15.5249 10.0193 15.2216 10.08 14.9269 10.236ZM2.83689 13.642C2.43822 13.6247 2.07422 13.4773 1.74489 13.2C1.39822 12.9053 1.16422 12.5673 1.04289 12.186C0.921557 11.8047 0.921557 11.406 1.04289 10.99C1.16422 10.5567 1.38089 10.2273 1.69289 10.002C1.48489 10.3313 1.34622 10.6867 1.27689 11.068C1.19022 11.4493 1.19889 11.796 1.30289 12.108C1.38956 12.42 1.57156 12.7147 1.84889 12.992C2.12622 13.2693 2.45556 13.486 2.83689 13.642ZM6.84089 13.096C6.49422 13.304 6.07822 13.3993 5.59289 13.382C5.10756 13.3647 4.71756 13.2173 4.42289 12.94C4.11089 12.68 3.91156 12.316 3.82489 11.848C3.73822 11.3627 3.77289 10.9293 3.92889 10.548C3.91156 10.964 3.98956 11.3367 4.16289 11.666C4.35356 11.9953 4.57022 12.264 4.81289 12.472C5.07289 12.68 5.37622 12.8533 5.72289 12.992C6.06956 13.1307 6.44222 13.1653 6.84089 13.096ZM18.2289 11.77C18.6622 11.8047 19.0869 11.9693 19.5029 12.264C19.9362 12.5587 20.2136 12.9227 20.3349 13.356C20.4736 13.7893 20.4476 14.2487 20.2569 14.734C20.0662 15.202 19.7889 15.566 19.4249 15.826C19.6676 15.462 19.8062 15.072 19.8409 14.656C19.8756 14.24 19.8409 13.8673 19.7369 13.538C19.6329 13.1913 19.4509 12.862 19.1909 12.55C18.9482 12.2207 18.6276 11.9607 18.2289 11.77ZM21.1409 12.94C21.6436 13.1827 22.0249 13.5727 22.2849 14.11C22.5622 14.63 22.6749 15.176 22.6229 15.748C22.5882 16.3027 22.3889 16.8227 22.0249 17.308C21.6782 17.776 21.2362 18.088 20.6989 18.244C21.1496 17.9147 21.5309 17.5247 21.8429 17.074C22.1549 16.606 22.3369 16.1553 22.3889 15.722C22.4236 15.2713 22.3196 14.7947 22.0769 14.292C21.8516 13.7893 21.5396 13.3387 21.1409 12.94ZM3.66889 15.54C3.84222 15.0547 4.16289 14.6387 4.63089 14.292C5.09889 13.9453 5.59289 13.7807 6.11289 13.798C6.40756 13.798 6.70222 13.8673 6.99689 14.006C7.30889 14.1273 7.57756 14.3007 7.80289 14.526C7.49089 14.1273 7.30022 13.7027 7.23089 13.252C7.49089 13.72 7.82022 14.0927 8.21889 14.37C8.63489 14.6473 9.05089 14.8293 9.46689 14.916C9.83089 14.7773 10.1602 14.76 10.4549 14.864C10.5069 14.8813 10.5589 14.9073 10.6109 14.942C10.8882 14.89 11.1569 14.812 11.4169 14.708C11.6769 14.5867 11.9282 14.4307 12.1709 14.24C12.1016 14.3613 12.0236 14.474 11.9369 14.578C12.1449 14.4567 12.3529 14.3873 12.5609 14.37C12.3529 14.474 12.2056 14.6213 12.1189 14.812C12.0496 15.0027 11.9889 15.1847 11.9369 15.358C11.8849 15.5487 11.8416 15.748 11.8069 15.956C11.7896 16.1467 11.8502 16.3373 11.9889 16.528C11.7982 16.4067 11.6249 16.216 11.4689 15.956C11.3129 15.6787 11.2696 15.4273 11.3389 15.202C11.3562 15.15 11.3736 15.098 11.3909 15.046C11.2869 15.1153 11.1656 15.1847 11.0269 15.254C11.3736 15.6353 11.5556 16.0773 11.5729 16.58C11.4689 16.2853 11.3042 16.06 11.0789 15.904C10.8536 15.7307 10.6196 15.592 10.3769 15.488C10.0129 15.5747 9.66622 15.592 9.33689 15.54C9.19822 15.5053 9.05956 15.4533 8.92089 15.384C8.78222 15.436 8.65222 15.4967 8.53089 15.566C8.60022 15.4793 8.67822 15.4013 8.76489 15.332C8.53956 15.2107 8.33156 15.0633 8.14089 14.89C8.31422 15.098 8.44422 15.3233 8.53089 15.566C8.20156 15.1847 7.81156 14.8987 7.36089 14.708C6.92756 14.5173 6.51156 14.422 6.11289 14.422C5.69689 14.4047 5.26356 14.4913 4.81289 14.682C4.37956 14.8727 3.99822 15.1587 3.66889 15.54ZM4.86489 19.128C4.46622 19.1627 4.05022 19.0673 3.61689 18.842C3.18356 18.6167 2.88022 18.3133 2.70689 17.932C2.53356 17.568 2.50756 17.152 2.62889 16.684C2.75022 16.216 2.95822 15.8347 3.25289 15.54C3.07956 15.904 3.00156 16.2767 3.01889 16.658C3.05356 17.0393 3.14022 17.386 3.27889 17.698C3.41756 17.9927 3.61689 18.2787 3.87689 18.556C4.13689 18.816 4.46622 19.0067 4.86489 19.128ZM19.3469 16.242C19.5549 16.5193 19.6849 16.866 19.7369 17.282C19.7889 17.698 19.7282 18.0447 19.5549 18.322C19.3642 18.6167 19.0696 18.8247 18.6709 18.946C18.2722 19.0673 17.8996 19.0847 17.5529 18.998C17.8996 18.9633 18.1942 18.8507 18.4369 18.66C18.6796 18.452 18.8702 18.2267 19.0089 17.984C19.1649 17.7587 19.2862 17.4987 19.3729 17.204C19.4596 16.892 19.4509 16.5713 19.3469 16.242ZM17.2149 19.258C17.2322 19.5873 17.1542 19.934 16.9809 20.298C16.8249 20.662 16.5909 20.9047 16.2789 21.026C15.9842 21.1647 15.6462 21.1733 15.2649 21.052C14.8836 20.9307 14.5802 20.7487 14.3549 20.506C14.6496 20.662 14.9442 20.7227 15.2389 20.688C15.5336 20.636 15.8022 20.558 16.0449 20.454C16.2876 20.35 16.5216 20.2027 16.7469 20.012C16.9722 19.8213 17.1282 19.57 17.2149 19.258ZM9.02489 20.714C8.76489 21.0433 8.39222 21.286 7.90689 21.442C7.43889 21.6153 7.00556 21.6327 6.60689 21.494C6.20822 21.338 5.87889 21.052 5.61889 20.636C5.35889 20.22 5.22022 19.7953 5.20289 19.362C5.35889 19.7607 5.58422 20.09 5.87889 20.35C6.19089 20.5927 6.50289 20.7747 6.81489 20.896C7.14422 21 7.49956 21.052 7.88089 21.052C8.27956 21.052 8.66089 20.9393 9.02489 20.714ZM13.9389 20.61C13.8002 21.0607 13.5142 21.4593 13.0809 21.806C12.6649 22.1527 12.2229 22.3347 11.7549 22.352C11.2869 22.3693 10.8276 22.2133 10.3769 21.884C9.94356 21.572 9.63156 21.1993 9.44089 20.766C9.77022 21.1127 10.1342 21.364 10.5329 21.52C10.9489 21.676 11.3476 21.7453 11.7289 21.728C12.1102 21.7107 12.5002 21.6067 12.8989 21.416C13.3149 21.2427 13.6616 20.974 13.9389 20.61ZM11.8589 22.82C11.4949 23.4267 10.9576 23.86 10.2469 24.12C9.55356 24.38 8.86022 24.4493 8.16689 24.328C7.47356 24.2067 6.84089 23.8947 6.26889 23.392C5.69689 22.9067 5.35022 22.3173 5.22889 21.624C5.59289 22.2307 6.04356 22.7593 6.58089 23.21C7.11822 23.678 7.66422 23.964 8.21889 24.068C8.77356 24.172 9.38022 24.1027 10.0389 23.86C10.7149 23.6173 11.3216 23.2707 11.8589 22.82ZM20.2118 3.606C20.1945 2.94733 20.3938 2.34067 20.8098 1.786C21.2431 1.214 21.7631 0.797999 22.3698 0.537998C22.9938 0.295332 23.6525 0.234665 24.3458 0.355999C25.0565 0.459999 25.6285 0.754665 26.0618 1.24C25.4725 0.927999 24.8485 0.728665 24.1898 0.641999C23.5485 0.537999 22.9765 0.589999 22.4738 0.798C21.9885 0.988666 21.5378 1.35267 21.1218 1.89C20.7231 2.41 20.4198 2.982 20.2118 3.606ZM32.6398 4.776C32.4665 4.16933 32.5011 3.56267 32.7438 2.956C33.0038 2.34933 33.3851 1.85533 33.8878 1.474C34.3731 1.11 34.9451 0.893333 35.6038 0.823999C36.2798 0.754666 36.8778 0.893332 37.3978 1.24C36.7911 1.10133 36.1758 1.06667 35.5518 1.136C34.9451 1.20533 34.4425 1.38733 34.0438 1.682C33.6451 1.97667 33.3245 2.41 33.0818 2.982C32.8391 3.554 32.6918 4.152 32.6398 4.776ZM22.1618 3.606C22.2658 3.19 22.4998 2.80867 22.8638 2.462C23.2278 2.098 23.6265 1.89867 24.0598 1.864C24.4931 1.812 24.9178 1.92467 25.3338 2.202C25.7671 2.462 26.0791 2.79133 26.2698 3.19C25.9578 2.89533 25.6025 2.696 25.2038 2.592C24.8225 2.47067 24.4585 2.42733 24.1118 2.462C23.7825 2.514 23.4358 2.62667 23.0718 2.8C22.7078 2.97333 22.4045 3.242 22.1618 3.606ZM35.5258 3.788C35.5951 3.44133 35.7685 3.10333 36.0458 2.774C36.3231 2.42733 36.6351 2.228 36.9818 2.176C37.3458 2.10667 37.7098 2.18467 38.0738 2.41C38.4551 2.618 38.7411 2.878 38.9318 3.19C38.6545 2.96467 38.3511 2.826 38.0218 2.774C37.6925 2.722 37.3805 2.722 37.0858 2.774C36.8085 2.826 36.5225 2.93 36.2278 3.086C35.9331 3.242 35.6991 3.476 35.5258 3.788ZM26.7118 3.19C27.0585 3.086 27.4485 3.09467 27.8818 3.216C28.3151 3.32 28.6445 3.528 28.8698 3.84C29.0951 4.13467 29.1905 4.50733 29.1558 4.958C29.1385 5.40867 29.0171 5.79 28.7918 6.102C28.8958 5.72067 28.8958 5.374 28.7918 5.062C28.6878 4.73267 28.5491 4.44667 28.3758 4.204C28.1851 3.96133 27.9511 3.74467 27.6738 3.554C27.3965 3.346 27.0758 3.22467 26.7118 3.19ZM39.3478 3.19C39.6251 3.138 39.9371 3.164 40.2838 3.268C40.6305 3.372 40.8818 3.54533 41.0378 3.788C41.1938 4.03067 41.2371 4.334 41.1678 4.698C41.0985 5.062 40.9685 5.35667 40.7778 5.582C40.8645 5.30467 40.8731 5.04467 40.8038 4.802C40.7345 4.542 40.6391 4.308 40.5178 4.1C40.3965 3.90933 40.2405 3.72733 40.0498 3.554C39.8591 3.36333 39.6251 3.242 39.3478 3.19ZM33.6538 6.882C33.4111 6.58733 33.2551 6.22333 33.1858 5.79C33.1338 5.33933 33.2031 4.94933 33.3938 4.62C33.5845 4.29067 33.8965 4.05667 34.3298 3.918C34.7631 3.762 35.1618 3.71867 35.5258 3.788C35.1445 3.85733 34.8238 4.00467 34.5638 4.23C34.3038 4.438 34.0958 4.672 33.9398 4.932C33.7838 5.192 33.6625 5.49533 33.5758 5.842C33.5065 6.17133 33.5325 6.518 33.6538 6.882ZM22.1618 7.662C21.7978 7.52333 21.4685 7.28067 21.1738 6.934C20.8965 6.58733 20.7578 6.22333 20.7578 5.842C20.7578 5.46067 20.8965 5.09667 21.1738 4.75C21.4685 4.386 21.7978 4.14333 22.1618 4.022C21.8671 4.26467 21.6591 4.55067 21.5378 4.88C21.4338 5.20933 21.3818 5.53 21.3818 5.842C21.3818 6.13667 21.4338 6.44867 21.5378 6.778C21.6591 7.10733 21.8671 7.402 22.1618 7.662ZM40.7778 5.998C41.2631 6.17133 41.6791 6.492 42.0258 6.96C42.3725 7.428 42.5458 7.91333 42.5458 8.416C42.5458 8.936 42.3725 9.43 42.0258 9.898C41.6791 10.366 41.2631 10.6867 40.7778 10.86C41.1765 10.5307 41.4625 10.1493 41.6358 9.716C41.8265 9.26533 41.9218 8.832 41.9218 8.416C41.9218 8.01733 41.8265 7.60133 41.6358 7.168C41.4625 6.71733 41.1765 6.32733 40.7778 5.998ZM31.0538 9.794C30.9845 9.65533 30.9325 9.508 30.8978 9.352L30.8198 9.43C30.8371 9.378 30.8545 9.33467 30.8718 9.3C30.8025 8.97067 30.8025 8.65 30.8718 8.338C30.8198 8.078 30.7158 7.818 30.5598 7.558C30.4038 7.298 30.1958 7.064 29.9358 6.856C29.6931 6.63067 29.3898 6.492 29.0258 6.44C29.3725 6.37067 29.7538 6.40533 30.1698 6.544C30.5858 6.68267 30.8891 6.91667 31.0798 7.246C31.1491 7.35 31.2011 7.46267 31.2358 7.584H31.2618C31.5045 7.30667 31.8425 7.142 32.2758 7.09C32.7091 7.038 33.0991 7.09 33.4458 7.246C33.0818 7.21133 32.7525 7.28067 32.4578 7.454C32.1631 7.61 31.9118 7.792 31.7038 8C31.4958 8.22533 31.3225 8.494 31.1838 8.806C31.0451 9.10067 31.0018 9.43 31.0538 9.794ZM42.7278 7.35C43.3691 7.57533 43.8718 8 44.2358 8.624C44.5998 9.23067 44.7818 9.872 44.7818 10.548C44.7818 11.224 44.5998 11.874 44.2358 12.498C43.8718 13.1047 43.3691 13.5293 42.7278 13.772C43.2478 13.3387 43.6725 12.8273 44.0018 12.238C44.3485 11.6487 44.5218 11.0853 44.5218 10.548C44.5218 10.0107 44.3485 9.456 44.0018 8.884C43.6725 8.29467 43.2478 7.78333 42.7278 7.35ZM22.1618 12.628C21.7111 12.4547 21.3125 12.1513 20.9658 11.718C20.6365 11.2847 20.4718 10.8253 20.4718 10.34C20.4718 9.872 20.6365 9.42133 20.9658 8.988C21.3125 8.53733 21.7111 8.22533 22.1618 8.052C21.7978 8.364 21.5291 8.728 21.3558 9.144C21.1825 9.56 21.0958 9.95867 21.0958 10.34C21.0958 10.7213 21.1825 11.12 21.3558 11.536C21.5291 11.952 21.7978 12.316 22.1618 12.628ZM20.2118 15.54C19.6225 15.3147 19.1631 14.9247 18.8338 14.37C18.4871 13.798 18.3138 13.2 18.3138 12.576C18.3138 11.952 18.4871 11.3627 18.8338 10.808C19.1631 10.236 19.6225 9.83733 20.2118 9.612C19.7438 10.0107 19.3538 10.4787 19.0418 11.016C18.7298 11.5533 18.5738 12.0733 18.5738 12.576C18.5738 13.0787 18.7298 13.5987 19.0418 14.136C19.3538 14.6733 19.7438 15.1413 20.2118 15.54ZM40.7778 11.276C41.1418 11.4147 41.4711 11.666 41.7658 12.03C42.0605 12.3767 42.2078 12.7493 42.2078 13.148C42.2078 13.5293 42.0605 13.902 41.7658 14.266C41.4711 14.63 41.1418 14.8813 40.7778 15.02C41.0725 14.76 41.2805 14.4653 41.4018 14.136C41.5231 13.7893 41.5838 13.46 41.5838 13.148C41.5838 12.836 41.5231 12.5153 41.4018 12.186C41.2805 11.8393 41.0725 11.536 40.7778 11.276ZM22.1618 17.698C21.6938 17.542 21.2865 17.2387 20.9398 16.788C20.6105 16.3373 20.4458 15.8693 20.4458 15.384C20.4458 14.8813 20.6105 14.4133 20.9398 13.98C21.2865 13.5293 21.6938 13.2173 22.1618 13.044C21.7805 13.356 21.5031 13.7287 21.3298 14.162C21.1565 14.578 21.0698 14.9853 21.0698 15.384C21.0698 15.7653 21.1565 16.1727 21.3298 16.606C21.5031 17.022 21.7805 17.386 22.1618 17.698ZM35.4478 18.244C35.0145 18.0707 34.6331 17.776 34.3038 17.36C33.9745 16.944 33.7925 16.502 33.7578 16.034C33.4458 16.034 33.1685 15.982 32.9258 15.878C33.2031 15.8953 33.4805 15.852 33.7578 15.748C33.7925 15.28 33.9745 14.8467 34.3038 14.448C34.6331 14.032 35.0145 13.746 35.4478 13.59C35.1531 13.8327 34.9191 14.1187 34.7458 14.448C34.5898 14.76 34.4771 15.072 34.4078 15.384C34.5465 15.2973 34.6678 15.1933 34.7718 15.072C34.9798 14.8467 35.1531 14.5693 35.2918 14.24C35.4478 13.9107 35.4998 13.5553 35.4478 13.174C35.6211 13.5207 35.6905 13.928 35.6558 14.396C35.6385 14.8467 35.4998 15.2107 35.2398 15.488C35.0145 15.7133 34.7198 15.8693 34.3558 15.956C34.3731 16.3547 34.4685 16.762 34.6418 17.178C34.8151 17.5767 35.0838 17.932 35.4478 18.244ZM29.1298 14.448C29.1471 14.6387 29.1211 14.864 29.0518 15.124C28.9825 15.3667 28.8611 15.5313 28.6878 15.618C28.5145 15.7047 28.3065 15.696 28.0638 15.592C27.8211 15.488 27.6305 15.3667 27.4918 15.228C27.6651 15.3147 27.8211 15.3233 27.9598 15.254C28.1158 15.1847 28.2631 15.1153 28.4018 15.046C28.5405 14.994 28.6791 14.9333 28.8178 14.864C28.9738 14.7773 29.0778 14.6387 29.1298 14.448ZM32.6138 16.19C32.3538 16.4673 32.0071 16.6753 31.5738 16.814C31.1578 16.9353 30.7765 16.918 30.4298 16.762C30.1005 16.6233 29.8318 16.3547 29.6238 15.956C29.4158 15.5573 29.3205 15.176 29.3378 14.812C29.4591 15.1587 29.6411 15.4447 29.8838 15.67C30.1438 15.8953 30.4125 16.0687 30.6898 16.19C30.9498 16.3113 31.2531 16.3893 31.5998 16.424C31.9465 16.4413 32.2845 16.3633 32.6138 16.19ZM40.7778 15.436C41.0898 15.54 41.3758 15.748 41.6358 16.06C41.8958 16.3547 42.0258 16.658 42.0258 16.97C42.0258 17.2993 41.8958 17.62 41.6358 17.932C41.3758 18.2267 41.0898 18.426 40.7778 18.53C41.0205 18.322 41.1851 18.0793 41.2718 17.802C41.3585 17.5073 41.4018 17.23 41.4018 16.97C41.4018 16.71 41.3585 16.4413 41.2718 16.164C41.1851 15.8867 41.0205 15.644 40.7778 15.436ZM27.4918 15.644C27.8211 15.7653 28.1245 15.9907 28.4018 16.32C28.6791 16.6493 28.8178 16.996 28.8178 17.36C28.8178 17.7067 28.6791 18.0447 28.4018 18.374C28.1245 18.7033 27.8211 18.9287 27.4918 19.05C27.7691 18.8247 27.9511 18.556 28.0378 18.244C28.1418 17.932 28.1938 17.6373 28.1938 17.36C28.1938 17.0653 28.1418 16.7707 28.0378 16.476C27.9511 16.164 27.7691 15.8867 27.4918 15.644ZM24.3198 20.61C23.9905 20.7313 23.6178 20.766 23.2018 20.714C22.8031 20.6447 22.4911 20.48 22.2658 20.22C22.0405 19.96 21.9191 19.622 21.9018 19.206C21.9018 18.79 21.9885 18.426 22.1618 18.114C22.1098 18.4607 22.1445 18.7813 22.2658 19.076C22.3871 19.3533 22.5431 19.596 22.7338 19.804C22.9071 20.012 23.1238 20.2027 23.3838 20.376C23.6611 20.532 23.9731 20.61 24.3198 20.61ZM37.1898 20.61C36.9298 20.714 36.6265 20.7487 36.2798 20.714C35.9331 20.6793 35.6731 20.558 35.4998 20.35C35.3091 20.142 35.2138 19.8647 35.2138 19.518C35.2311 19.1713 35.3091 18.8767 35.4478 18.634C35.4131 18.9113 35.4478 19.1627 35.5518 19.388C35.6731 19.596 35.8118 19.778 35.9678 19.934C36.1065 20.1073 36.2711 20.2633 36.4618 20.402C36.6698 20.5407 36.9125 20.61 37.1898 20.61ZM40.7778 18.946C40.8298 19.3273 40.7691 19.726 40.5958 20.142C40.4225 20.5407 40.1711 20.8267 39.8418 21C39.4951 21.1733 39.1051 21.2167 38.6718 21.13C38.2385 21.0433 37.8831 20.87 37.6058 20.61C37.9525 20.7487 38.2905 20.792 38.6198 20.74C38.9665 20.688 39.2785 20.5927 39.5558 20.454C39.8158 20.3153 40.0585 20.1247 40.2838 19.882C40.5265 19.622 40.6911 19.31 40.7778 18.946ZM27.4918 19.466C27.5091 19.778 27.4311 20.1073 27.2578 20.454C27.0845 20.8007 26.8505 21.0347 26.5558 21.156C26.2785 21.2773 25.9578 21.2687 25.5938 21.13C25.2298 21.0087 24.9438 20.8353 24.7358 20.61C25.0131 20.7487 25.2905 20.8007 25.5678 20.766C25.8451 20.7313 26.0965 20.6707 26.3218 20.584C26.5645 20.48 26.7985 20.35 27.0238 20.194C27.2491 20.0207 27.4051 19.778 27.4918 19.466ZM29.3378 20.948C29.3378 21.4853 29.1558 21.9707 28.7918 22.404C28.4278 22.8373 28.0031 23.132 27.5178 23.288C27.0151 23.4613 26.4865 23.4873 25.9318 23.366C25.3945 23.2447 24.9611 22.976 24.6318 22.56C25.0651 22.8373 25.5331 23.0193 26.0358 23.106C26.5558 23.21 27.0151 23.1927 27.4138 23.054C27.8125 22.9153 28.1851 22.6553 28.5318 22.274C28.8785 21.8927 29.1471 21.4507 29.3378 20.948ZM40.0498 22.56C39.6858 23.132 39.1485 23.5307 38.4378 23.756C37.7445 23.9987 37.0685 24.042 36.4098 23.886C35.7338 23.7473 35.1271 23.418 34.5898 22.898C34.0525 22.3953 33.7405 21.806 33.6538 21.13C33.9658 21.7367 34.3731 22.274 34.8758 22.742C35.3958 23.2273 35.9245 23.5307 36.4618 23.652C36.9991 23.756 37.5971 23.704 38.2558 23.496C38.9145 23.288 39.5125 22.976 40.0498 22.56ZM55.0374 1.24C55.54 1.032 56.0687 1.006 56.6234 1.162C57.1954 1.318 57.6634 1.59533 58.0274 1.994C58.4087 2.41 58.6514 2.904 58.7554 3.476C58.8767 4.048 58.8074 4.57667 58.5474 5.062C58.6167 4.50733 58.5907 3.97 58.4694 3.45C58.348 2.93 58.14 2.50533 57.8454 2.176C57.5507 1.864 57.1434 1.63 56.6234 1.474C56.1034 1.30067 55.5747 1.22267 55.0374 1.24ZM49.4994 3.19C49.6207 2.84333 49.846 2.53133 50.1754 2.254C50.522 1.97667 50.8774 1.838 51.2414 1.838C51.6054 1.838 51.952 1.97667 52.2814 2.254C52.628 2.53133 52.862 2.84333 52.9834 3.19C52.758 2.91267 52.4807 2.722 52.1514 2.618C51.8394 2.514 51.536 2.462 51.2414 2.462C50.9467 2.462 50.6434 2.514 50.3314 2.618C50.0194 2.722 49.742 2.91267 49.4994 3.19ZM53.3994 3.19C53.6074 2.94733 53.8934 2.75667 54.2574 2.618C54.6214 2.47933 54.9507 2.47067 55.2454 2.592C55.54 2.696 55.774 2.92133 55.9474 3.268C56.138 3.61467 56.2334 3.944 56.2334 4.256C56.112 3.96133 55.9387 3.72733 55.7134 3.554C55.488 3.38067 55.254 3.25067 55.0114 3.164C54.786 3.07733 54.526 3.02533 54.2314 3.008C53.954 2.97333 53.6767 3.034 53.3994 3.19ZM47.8354 6.492C47.5754 6.21467 47.3934 5.85067 47.2894 5.4C47.1854 4.94933 47.22 4.55067 47.3934 4.204C47.5667 3.85733 47.8614 3.59733 48.2774 3.424C48.7107 3.23333 49.118 3.15533 49.4994 3.19C49.118 3.27667 48.7974 3.45 48.5374 3.71C48.2947 3.95267 48.104 4.21267 47.9654 4.49C47.8267 4.76733 47.7314 5.088 47.6794 5.452C47.6274 5.79867 47.6794 6.14533 47.8354 6.492ZM44.4814 10.236C43.996 9.83733 43.684 9.30867 43.5454 8.65C43.4067 7.99133 43.4414 7.35867 43.6494 6.752C43.8574 6.16267 44.2214 5.65133 44.7414 5.218C45.2614 4.78467 45.842 4.568 46.4834 4.568C45.8767 4.79333 45.3307 5.114 44.8454 5.53C44.3774 5.92867 44.0567 6.37067 43.8834 6.856C43.7274 7.324 43.7014 7.87 43.8054 8.494C43.9267 9.118 44.152 9.69867 44.4814 10.236ZM56.3634 4.646C56.866 4.646 57.3514 4.81067 57.8194 5.14C58.3047 5.452 58.6254 5.842 58.7814 6.31C58.9547 6.778 58.946 7.28933 58.7554 7.844C58.582 8.38133 58.3047 8.81467 57.9234 9.144C58.1834 8.71067 58.322 8.26 58.3394 7.792C58.374 7.324 58.3307 6.89933 58.2094 6.518C58.0707 6.13667 57.8454 5.77267 57.5334 5.426C57.2214 5.07933 56.8314 4.81933 56.3634 4.646ZM46.1454 11.38C45.7467 11.068 45.4607 10.6433 45.2874 10.106C45.114 9.55133 45.114 9.04 45.2874 8.572C45.4434 8.08667 45.7554 7.688 46.2234 7.376C46.7087 7.064 47.2027 6.89933 47.7054 6.882C47.2374 7.07267 46.8474 7.34133 46.5354 7.688C46.2234 8.03467 45.998 8.39867 45.8594 8.78C45.738 9.144 45.686 9.56 45.7034 10.028C45.738 10.496 45.8854 10.9467 46.1454 11.38ZM59.8474 8.78C60.5754 8.78 61.234 9.03133 61.8234 9.534C62.43 10.0367 62.8547 10.6347 63.0974 11.328C63.34 12.0213 63.3834 12.7493 63.2274 13.512C63.0714 14.2747 62.716 14.8813 62.1614 15.332C62.5254 14.708 62.7767 14.0407 62.9154 13.33C63.0714 12.602 63.0454 11.9607 62.8374 11.406C62.6467 10.8513 62.274 10.34 61.7194 9.872C61.1647 9.404 60.5407 9.04 59.8474 8.78ZM52.3854 13.954C52.1774 13.7633 52.0127 13.512 51.8914 13.2C51.458 13.5467 50.99 13.7287 50.4874 13.746C50.782 13.6247 51.0334 13.4687 51.2414 13.278C51.4494 13.0873 51.6227 12.8707 51.7614 12.628C51.744 12.4373 51.7787 12.2553 51.8654 12.082C51.9174 11.9433 52.004 11.822 52.1254 11.718C52.1947 11.4233 52.212 11.1287 52.1774 10.834C52.0907 10.7993 52.0214 10.756 51.9694 10.704C51.796 10.5307 51.7094 10.2967 51.7094 10.002C51.7094 9.69 51.7614 9.43 51.8654 9.222C51.848 9.44733 51.9 9.64667 52.0214 9.82C52.1427 9.976 52.2727 10.1233 52.4114 10.262C52.5327 10.3833 52.6714 10.5133 52.8274 10.652C53.0007 10.7733 53.2087 10.8253 53.4514 10.808C53.2087 10.912 52.94 10.9553 52.6454 10.938C52.68 11.0767 52.706 11.2153 52.7234 11.354C53.018 11.2327 53.2954 11.1807 53.5554 11.198C53.382 11.25 53.226 11.328 53.0874 11.432C52.9487 11.536 52.8274 11.6573 52.7234 11.796C52.7234 11.9173 52.706 12.0387 52.6714 12.16C52.5847 12.4027 52.446 12.6367 52.2554 12.862C52.2207 13.0353 52.2034 13.2173 52.2034 13.408C52.2207 13.5813 52.2814 13.7633 52.3854 13.954ZM58.0534 9.534C58.4347 9.534 58.8074 9.64667 59.1714 9.872C59.5527 10.0973 59.804 10.3833 59.9254 10.73C60.0467 11.0767 60.0294 11.458 59.8734 11.874C59.7347 12.29 59.518 12.6193 59.2234 12.862C59.414 12.5327 59.5007 12.2033 59.4834 11.874C59.4834 11.5273 59.44 11.2153 59.3534 10.938C59.2494 10.6607 59.0934 10.392 58.8854 10.132C58.6774 9.85467 58.4 9.65533 58.0534 9.534ZM44.3254 16.554C43.9094 16.2247 43.6147 15.774 43.4414 15.202C43.268 14.6127 43.268 14.0667 43.4414 13.564C43.6147 13.0613 43.9527 12.6453 44.4554 12.316C44.958 11.9693 45.4694 11.7873 45.9894 11.77C45.504 11.9607 45.088 12.2467 44.7414 12.628C44.3947 12.992 44.152 13.3733 44.0134 13.772C43.8747 14.1707 43.8227 14.6213 43.8574 15.124C43.892 15.6267 44.048 16.1033 44.3254 16.554ZM59.3534 13.252C59.8387 13.252 60.3154 13.408 60.7834 13.72C61.2687 14.032 61.5894 14.422 61.7454 14.89C61.9014 15.3407 61.8927 15.8347 61.7194 16.372C61.546 16.9093 61.2687 17.334 60.8874 17.646C61.1474 17.23 61.286 16.7967 61.3034 16.346C61.338 15.878 61.286 15.4533 61.1474 15.072C61.026 14.708 60.8094 14.3613 60.4974 14.032C60.2027 13.6853 59.8214 13.4253 59.3534 13.252ZM43.1294 19.986C42.8694 19.778 42.67 19.4833 42.5314 19.102C42.3754 18.7207 42.3494 18.374 42.4534 18.062C42.5747 17.7327 42.8087 17.4727 43.1554 17.282C43.502 17.074 43.8487 16.9613 44.1954 16.944C43.8834 17.0653 43.632 17.256 43.4414 17.516C43.268 17.7587 43.138 18.0013 43.0514 18.244C42.9647 18.504 42.9127 18.79 42.8954 19.102C42.878 19.3967 42.956 19.6913 43.1294 19.986ZM61.0434 18.036C61.286 18.1053 61.5287 18.2613 61.7714 18.504C62.0314 18.7467 62.17 18.998 62.1874 19.258C62.1874 19.5353 62.0747 19.804 61.8494 20.064C61.6414 20.324 61.4074 20.506 61.1474 20.61C61.3554 20.4193 61.4767 20.2113 61.5114 19.986C61.546 19.7433 61.5634 19.518 61.5634 19.31C61.546 19.0847 61.5027 18.8593 61.4334 18.634C61.3814 18.3913 61.2514 18.192 61.0434 18.036ZM54.2834 18.244C54.1274 18.6427 53.8587 18.998 53.4774 19.31C53.096 19.6047 52.6974 19.752 52.2814 19.752C51.848 19.752 51.4407 19.6047 51.0594 19.31C50.678 18.998 50.418 18.6427 50.2794 18.244C50.5394 18.5733 50.8514 18.8073 51.2154 18.946C51.5794 19.0673 51.9347 19.128 52.2814 19.128C52.6107 19.128 52.9574 19.0673 53.3214 18.946C53.6854 18.8073 54.006 18.5733 54.2834 18.244ZM56.3114 20.428C56.034 20.5147 55.722 20.5233 55.3754 20.454C55.0287 20.3847 54.7687 20.2373 54.5954 20.012C54.422 19.7867 54.3527 19.5007 54.3874 19.154C54.422 18.79 54.5174 18.4867 54.6734 18.244C54.6214 18.5213 54.6387 18.7813 54.7254 19.024C54.8294 19.2493 54.9507 19.4573 55.0894 19.648C55.228 19.8213 55.3927 19.9947 55.5834 20.168C55.7914 20.324 56.034 20.4107 56.3114 20.428ZM49.8634 18.244C50.0194 18.5213 50.0974 18.8593 50.0974 19.258C50.1147 19.6567 50.0194 19.9773 49.8114 20.22C49.6207 20.4627 49.326 20.6187 48.9274 20.688C48.546 20.74 48.1994 20.714 47.8874 20.61C48.2167 20.61 48.494 20.532 48.7194 20.376C48.962 20.2027 49.17 20.0207 49.3434 19.83C49.5167 19.622 49.6554 19.388 49.7594 19.128C49.8807 18.8507 49.9154 18.556 49.8634 18.244ZM45.1314 22.56C44.7327 22.872 44.2647 23.028 43.7274 23.028C43.19 23.028 42.7134 22.898 42.2974 22.638C41.864 22.378 41.5347 22.0053 41.3094 21.52C41.0667 21.052 40.9887 20.5753 41.0754 20.09C41.1447 20.5753 41.3007 21.0347 41.5434 21.468C41.786 21.9013 42.0807 22.222 42.4274 22.43C42.774 22.638 43.19 22.7507 43.6754 22.768C44.178 22.7853 44.6634 22.716 45.1314 22.56ZM59.8214 22.56C59.388 23.0453 58.8334 23.34 58.1574 23.444C57.4814 23.548 56.8487 23.4787 56.2594 23.236C55.67 22.9933 55.1674 22.5947 54.7514 22.04C54.3354 21.5027 54.136 20.9133 54.1534 20.272C54.3614 20.896 54.656 21.4593 55.0374 21.962C55.436 22.4647 55.878 22.8113 56.3634 23.002C56.8314 23.1927 57.386 23.236 58.0274 23.132C58.6687 23.0453 59.2667 22.8547 59.8214 22.56ZM47.4714 20.61C47.298 21.0433 46.986 21.416 46.5354 21.728C46.0847 22.04 45.6254 22.1787 45.1574 22.144C44.6894 22.1267 44.2474 21.936 43.8314 21.572C43.4154 21.2253 43.138 20.8267 42.9994 20.376C43.2767 20.7573 43.6147 21.0347 44.0134 21.208C44.412 21.3987 44.802 21.5027 45.1834 21.52C45.5647 21.5373 45.9634 21.4767 46.3794 21.338C46.7954 21.1993 47.1594 20.9567 47.4714 20.61ZM60.7574 20.61C60.6014 21.0087 60.3327 21.3553 59.9514 21.65C59.57 21.962 59.1627 22.118 58.7294 22.118C58.3134 22.118 57.906 21.962 57.5074 21.65C57.126 21.3553 56.866 21.0087 56.7274 20.61C57.0047 20.922 57.3254 21.1473 57.6894 21.286C58.0534 21.4247 58.4 21.494 58.7294 21.494C59.076 21.494 59.4314 21.4247 59.7954 21.286C60.1594 21.1647 60.48 20.9393 60.7574 20.61ZM66.6563 1.24C66.9857 0.789333 67.4363 0.494666 68.0083 0.355999C68.5977 0.199999 69.1523 0.199999 69.6723 0.355999C70.2097 0.529332 70.6777 0.841333 71.0763 1.292C71.475 1.72533 71.683 2.21933 71.7003 2.774C71.4923 2.254 71.1977 1.79467 70.8163 1.396C70.435 0.997333 70.0277 0.737333 69.5943 0.615999C69.1783 0.477332 68.7017 0.477332 68.1643 0.615999C67.627 0.737333 67.1243 0.945333 66.6563 1.24ZM66.8643 3.19C67.107 2.94733 67.4277 2.76533 67.8263 2.644C68.225 2.52267 68.5803 2.53133 68.8923 2.67C69.2217 2.80867 69.473 3.06867 69.6463 3.45C69.8197 3.83133 69.8977 4.19533 69.8803 4.542C69.7937 4.21267 69.629 3.944 69.3863 3.736C69.1437 3.528 68.901 3.36333 68.6583 3.242C68.3983 3.138 68.1123 3.06867 67.8003 3.034C67.4883 2.982 67.1763 3.034 66.8643 3.19ZM64.0563 4.438C64.0217 4.16067 64.065 3.85733 64.1863 3.528C64.3077 3.18133 64.4897 2.94733 64.7323 2.826C64.9923 2.68733 65.287 2.67 65.6163 2.774C65.963 2.86067 66.2403 2.99933 66.4483 3.19C66.1883 3.086 65.937 3.06867 65.6943 3.138C65.4517 3.19 65.2263 3.268 65.0183 3.372C64.8277 3.476 64.637 3.61467 64.4463 3.788C64.2557 3.944 64.1257 4.16067 64.0563 4.438ZM64.0563 7.74C63.727 7.636 63.4237 7.428 63.1463 7.116C62.8863 6.78667 62.7563 6.44867 62.7563 6.102C62.7563 5.75533 62.8863 5.426 63.1463 5.114C63.4237 4.78467 63.727 4.55933 64.0563 4.438C63.7963 4.66333 63.6143 4.932 63.5103 5.244C63.4237 5.53867 63.3803 5.82467 63.3803 6.102C63.3803 6.37933 63.4237 6.674 63.5103 6.986C63.6143 7.28067 63.7963 7.532 64.0563 7.74ZM69.8803 4.958C70.227 5.07933 70.539 5.31333 70.8163 5.66C71.111 5.98933 71.2583 6.34467 71.2583 6.726C71.2583 7.09 71.111 7.44533 70.8163 7.792C70.539 8.12133 70.227 8.35533 69.8803 8.494C70.1577 8.25133 70.3483 7.974 70.4523 7.662C70.5737 7.33267 70.6343 7.02067 70.6343 6.726C70.6343 6.43133 70.5737 6.128 70.4523 5.816C70.3483 5.48667 70.1577 5.20067 69.8803 4.958ZM64.0563 11.692C63.7097 11.5707 63.389 11.3453 63.0943 11.016C62.817 10.6693 62.6783 10.3053 62.6783 9.924C62.6783 9.56 62.817 9.21333 63.0943 8.884C63.389 8.53733 63.7097 8.29467 64.0563 8.156C63.779 8.39867 63.5797 8.68467 63.4583 9.014C63.3543 9.326 63.3023 9.62933 63.3023 9.924C63.3023 10.2187 63.3543 10.5307 63.4583 10.86C63.5797 11.172 63.779 11.4493 64.0563 11.692ZM62.1063 14.292C61.4997 14.0667 61.023 13.6593 60.6763 13.07C60.3123 12.4807 60.1303 11.8653 60.1303 11.224C60.1303 10.5827 60.3123 9.96733 60.6763 9.378C61.023 8.78867 61.4997 8.38133 62.1063 8.156C61.621 8.572 61.2137 9.05733 60.8843 9.612C60.555 10.1667 60.3903 10.704 60.3903 11.224C60.3903 11.744 60.555 12.2813 60.8843 12.836C61.2137 13.3907 61.621 13.876 62.1063 14.292ZM69.8803 8.91C70.1923 9.014 70.4783 9.222 70.7383 9.534C71.0157 9.846 71.1543 10.1667 71.1543 10.496C71.1543 10.8427 71.0157 11.172 70.7383 11.484C70.4783 11.796 70.1923 12.004 69.8803 12.108C70.1403 11.9 70.3137 11.6487 70.4003 11.354C70.487 11.0593 70.5303 10.7733 70.5303 10.496C70.5303 10.236 70.487 9.95867 70.4003 9.664C70.3137 9.36933 70.1403 9.118 69.8803 8.91ZM71.8303 13.174C72.125 12.6713 72.5583 12.3073 73.1303 12.082C73.7023 11.8567 74.2743 11.7873 74.8463 11.874C75.4183 11.978 75.9383 12.238 76.4063 12.654C76.8743 13.0527 77.1603 13.538 77.2643 14.11C76.9697 13.6073 76.597 13.174 76.1463 12.81C75.713 12.446 75.271 12.2207 74.8203 12.134C74.3523 12.0647 73.8497 12.1253 73.3123 12.316C72.775 12.5067 72.281 12.7927 71.8303 13.174ZM64.0563 15.852C63.6923 15.7133 63.363 15.462 63.0683 15.098C62.7737 14.734 62.6263 14.3613 62.6263 13.98C62.6263 13.5813 62.7737 13.2087 63.0683 12.862C63.363 12.498 63.6923 12.2467 64.0563 12.108C63.7617 12.368 63.5537 12.6713 63.4323 13.018C63.311 13.3473 63.2503 13.668 63.2503 13.98C63.2503 14.292 63.311 14.6213 63.4323 14.968C63.5537 15.2973 63.7617 15.592 64.0563 15.852ZM69.8803 12.524C70.279 12.524 70.669 12.6453 71.0503 12.888C71.449 13.1307 71.7177 13.4427 71.8563 13.824C71.995 14.188 71.9863 14.5953 71.8303 15.046C71.6743 15.4793 71.4403 15.8173 71.1283 16.06C71.3363 15.7133 71.4317 15.3667 71.4143 15.02C71.4143 14.656 71.3623 14.3267 71.2583 14.032C71.1543 13.7373 70.9897 13.4513 70.7643 13.174C70.539 12.8793 70.2443 12.6627 69.8803 12.524ZM71.5443 16.06C71.7003 15.644 71.9777 15.28 72.3763 14.968C72.7923 14.6387 73.2257 14.474 73.6763 14.474C74.127 14.474 74.5517 14.6387 74.9503 14.968C75.3663 15.28 75.6523 15.644 75.8083 16.06C75.5137 15.7133 75.1757 15.4707 74.7943 15.332C74.413 15.176 74.0403 15.098 73.6763 15.098C73.3123 15.098 72.9397 15.176 72.5583 15.332C72.177 15.4707 71.839 15.7133 71.5443 16.06ZM76.2243 16.06C76.5537 16.008 76.9003 16.0427 77.2643 16.164C77.6457 16.2853 77.9143 16.4933 78.0703 16.788C78.2437 17.0653 78.287 17.4033 78.2003 17.802C78.131 18.1833 77.9923 18.4953 77.7843 18.738C77.8883 18.4433 77.9057 18.1573 77.8363 17.88C77.767 17.5853 77.6717 17.3253 77.5503 17.1C77.4117 16.8747 77.2383 16.658 77.0303 16.45C76.8223 16.242 76.5537 16.112 76.2243 16.06ZM64.0563 20.298C63.6577 20.1593 63.3023 19.8993 62.9903 19.518C62.6783 19.1193 62.5223 18.7033 62.5223 18.27C62.5223 17.854 62.6783 17.4553 62.9903 17.074C63.3023 16.6753 63.6577 16.398 64.0563 16.242C63.727 16.5193 63.493 16.8487 63.3543 17.23C63.2157 17.594 63.1463 17.9407 63.1463 18.27C63.1463 18.6167 63.2157 18.972 63.3543 19.336C63.493 19.7 63.727 20.0207 64.0563 20.298ZM77.7843 19.154C77.8017 19.57 77.689 19.9947 77.4463 20.428C77.2037 20.844 76.8917 21.1213 76.5103 21.26C76.129 21.416 75.7043 21.4247 75.2363 21.286C74.7857 21.1473 74.4217 20.922 74.1443 20.61C74.5083 20.8007 74.881 20.896 75.2623 20.896C75.6437 20.8787 75.9817 20.8093 76.2763 20.688C76.5883 20.5667 76.883 20.3847 77.1603 20.142C77.455 19.882 77.663 19.5527 77.7843 19.154ZM69.2563 20.61C69.083 21.0953 68.7623 21.5113 68.2943 21.858C67.8263 22.2047 67.3323 22.378 66.8123 22.378C66.2923 22.378 65.7983 22.2047 65.3303 21.858C64.8623 21.5113 64.5417 21.0953 64.3683 20.61C64.6977 21.0087 65.079 21.2947 65.5123 21.468C65.963 21.6587 66.3963 21.754 66.8123 21.754C67.2283 21.754 67.653 21.6587 68.0863 21.468C68.537 21.2947 68.927 21.0087 69.2563 20.61ZM73.7283 20.61C73.5897 21.0087 73.321 21.364 72.9223 21.676C72.541 21.988 72.1337 22.144 71.7003 22.144C71.267 22.144 70.851 21.988 70.4523 21.676C70.071 21.364 69.811 21.0087 69.6723 20.61C69.9497 20.9393 70.2703 21.1733 70.6343 21.312C70.9983 21.4507 71.3537 21.52 71.7003 21.52C72.047 21.52 72.4023 21.4507 72.7663 21.312C73.1303 21.1733 73.451 20.9393 73.7283 20.61ZM78.0963 22.482C77.8883 23.106 77.481 23.6 76.8743 23.964C76.2677 24.3453 75.6263 24.5447 74.9503 24.562C74.2917 24.562 73.6503 24.38 73.0263 24.016C72.4197 23.6693 71.995 23.184 71.7523 22.56C72.1857 23.0627 72.6883 23.4787 73.2603 23.808C73.8497 24.1373 74.413 24.302 74.9503 24.302C75.4877 24.2847 76.0423 24.1027 76.6143 23.756C77.1863 23.4093 77.6803 22.9847 78.0963 22.482ZM71.7523 22.56C71.527 23.2013 71.1023 23.704 70.4783 24.068C69.8543 24.432 69.2043 24.614 68.5283 24.614C67.8523 24.614 67.2023 24.432 66.5783 24.068C65.9543 23.704 65.5297 23.2013 65.3043 22.56C65.7377 23.08 66.249 23.5047 66.8383 23.834C67.4277 24.1807 67.991 24.354 68.5283 24.354C69.0657 24.354 69.629 24.1807 70.2183 23.834C70.8077 23.5047 71.319 23.08 71.7523 22.56ZM82.9317 1.24C83.2611 0.789333 83.7117 0.494666 84.2837 0.355999C84.8731 0.199999 85.4277 0.199999 85.9477 0.355999C86.4851 0.529332 86.9531 0.841333 87.3517 1.292C87.7504 1.72533 87.9584 2.21933 87.9757 2.774C87.7677 2.254 87.4731 1.79467 87.0917 1.396C86.7104 0.997333 86.3031 0.737333 85.8697 0.615999C85.4537 0.477332 84.9771 0.477332 84.4397 0.615999C83.9024 0.737333 83.3997 0.945333 82.9317 1.24ZM83.1397 3.19C83.3824 2.94733 83.7031 2.76533 84.1017 2.644C84.5004 2.52267 84.8557 2.53133 85.1677 2.67C85.4971 2.80867 85.7484 3.06867 85.9217 3.45C86.0951 3.83133 86.1731 4.19533 86.1557 4.542C86.0691 4.21267 85.9044 3.944 85.6617 3.736C85.4191 3.528 85.1764 3.36333 84.9337 3.242C84.6737 3.138 84.3877 3.06867 84.0757 3.034C83.7637 2.982 83.4517 3.034 83.1397 3.19ZM80.3317 4.438C80.2971 4.16067 80.3404 3.85733 80.4617 3.528C80.5831 3.18133 80.7651 2.94733 81.0077 2.826C81.2677 2.68733 81.5624 2.67 81.8917 2.774C82.2384 2.86067 82.5157 2.99933 82.7237 3.19C82.4637 3.086 82.2124 3.06867 81.9697 3.138C81.7271 3.19 81.5017 3.268 81.2937 3.372C81.1031 3.476 80.9124 3.61467 80.7217 3.788C80.5311 3.944 80.4011 4.16067 80.3317 4.438ZM80.3317 7.74C80.0024 7.636 79.6991 7.428 79.4217 7.116C79.1617 6.78667 79.0317 6.44867 79.0317 6.102C79.0317 5.75533 79.1617 5.426 79.4217 5.114C79.6991 4.78467 80.0024 4.55933 80.3317 4.438C80.0717 4.66333 79.8897 4.932 79.7857 5.244C79.6991 5.53867 79.6557 5.82467 79.6557 6.102C79.6557 6.37933 79.6991 6.674 79.7857 6.986C79.8897 7.28067 80.0717 7.532 80.3317 7.74ZM86.1557 4.958C86.5024 5.07933 86.8144 5.31333 87.0917 5.66C87.3864 5.98933 87.5337 6.34467 87.5337 6.726C87.5337 7.09 87.3864 7.44533 87.0917 7.792C86.8144 8.12133 86.5024 8.35533 86.1557 8.494C86.4331 8.25133 86.6237 7.974 86.7277 7.662C86.8491 7.33267 86.9097 7.02067 86.9097 6.726C86.9097 6.43133 86.8491 6.128 86.7277 5.816C86.6237 5.48667 86.4331 5.20067 86.1557 4.958ZM80.3317 11.692C79.9851 11.5707 79.6644 11.3453 79.3697 11.016C79.0924 10.6693 78.9537 10.3053 78.9537 9.924C78.9537 9.56 79.0924 9.21333 79.3697 8.884C79.6644 8.53733 79.9851 8.29467 80.3317 8.156C80.0544 8.39867 79.8551 8.68467 79.7337 9.014C79.6297 9.326 79.5777 9.62933 79.5777 9.924C79.5777 10.2187 79.6297 10.5307 79.7337 10.86C79.8551 11.172 80.0544 11.4493 80.3317 11.692ZM78.3817 14.292C77.7751 14.0667 77.2984 13.6593 76.9517 13.07C76.5877 12.4807 76.4057 11.8653 76.4057 11.224C76.4057 10.5827 76.5877 9.96733 76.9517 9.378C77.2984 8.78867 77.7751 8.38133 78.3817 8.156C77.8964 8.572 77.4891 9.05733 77.1597 9.612C76.8304 10.1667 76.6657 10.704 76.6657 11.224C76.6657 11.744 76.8304 12.2813 77.1597 12.836C77.4891 13.3907 77.8964 13.876 78.3817 14.292ZM86.1557 8.91C86.4677 9.014 86.7537 9.222 87.0137 9.534C87.2911 9.846 87.4297 10.1667 87.4297 10.496C87.4297 10.8427 87.2911 11.172 87.0137 11.484C86.7537 11.796 86.4677 12.004 86.1557 12.108C86.4157 11.9 86.5891 11.6487 86.6757 11.354C86.7624 11.0593 86.8057 10.7733 86.8057 10.496C86.8057 10.236 86.7624 9.95867 86.6757 9.664C86.5891 9.36933 86.4157 9.118 86.1557 8.91ZM88.1057 13.174C88.4004 12.6713 88.8337 12.3073 89.4057 12.082C89.9777 11.8567 90.5497 11.7873 91.1217 11.874C91.6937 11.978 92.2137 12.238 92.6817 12.654C93.1497 13.0527 93.4357 13.538 93.5397 14.11C93.2451 13.6073 92.8724 13.174 92.4217 12.81C91.9884 12.446 91.5464 12.2207 91.0957 12.134C90.6277 12.0647 90.1251 12.1253 89.5877 12.316C89.0504 12.5067 88.5564 12.7927 88.1057 13.174ZM80.3317 15.852C79.9677 15.7133 79.6384 15.462 79.3437 15.098C79.0491 14.734 78.9017 14.3613 78.9017 13.98C78.9017 13.5813 79.0491 13.2087 79.3437 12.862C79.6384 12.498 79.9677 12.2467 80.3317 12.108C80.0371 12.368 79.8291 12.6713 79.7077 13.018C79.5864 13.3473 79.5257 13.668 79.5257 13.98C79.5257 14.292 79.5864 14.6213 79.7077 14.968C79.8291 15.2973 80.0371 15.592 80.3317 15.852ZM86.1557 12.524C86.5544 12.524 86.9444 12.6453 87.3257 12.888C87.7244 13.1307 87.9931 13.4427 88.1317 13.824C88.2704 14.188 88.2617 14.5953 88.1057 15.046C87.9497 15.4793 87.7157 15.8173 87.4037 16.06C87.6117 15.7133 87.7071 15.3667 87.6897 15.02C87.6897 14.656 87.6377 14.3267 87.5337 14.032C87.4297 13.7373 87.2651 13.4513 87.0397 13.174C86.8144 12.8793 86.5197 12.6627 86.1557 12.524ZM87.8197 16.06C87.9757 15.644 88.2531 15.28 88.6517 14.968C89.0677 14.6387 89.5011 14.474 89.9517 14.474C90.4024 14.474 90.8271 14.6387 91.2257 14.968C91.6417 15.28 91.9277 15.644 92.0837 16.06C91.7891 15.7133 91.4511 15.4707 91.0697 15.332C90.6884 15.176 90.3157 15.098 89.9517 15.098C89.5877 15.098 89.2151 15.176 88.8337 15.332C88.4524 15.4707 88.1144 15.7133 87.8197 16.06ZM92.4997 16.06C92.8291 16.008 93.1757 16.0427 93.5397 16.164C93.9211 16.2853 94.1897 16.4933 94.3457 16.788C94.5191 17.0653 94.5624 17.4033 94.4757 17.802C94.4064 18.1833 94.2677 18.4953 94.0597 18.738C94.1637 18.4433 94.1811 18.1573 94.1117 17.88C94.0424 17.5853 93.9471 17.3253 93.8257 17.1C93.6871 16.8747 93.5137 16.658 93.3057 16.45C93.0977 16.242 92.8291 16.112 92.4997 16.06ZM80.3317 20.298C79.9331 20.1593 79.5777 19.8993 79.2657 19.518C78.9537 19.1193 78.7977 18.7033 78.7977 18.27C78.7977 17.854 78.9537 17.4553 79.2657 17.074C79.5777 16.6753 79.9331 16.398 80.3317 16.242C80.0024 16.5193 79.7684 16.8487 79.6297 17.23C79.4911 17.594 79.4217 17.9407 79.4217 18.27C79.4217 18.6167 79.4911 18.972 79.6297 19.336C79.7684 19.7 80.0024 20.0207 80.3317 20.298ZM94.0597 19.154C94.0771 19.57 93.9644 19.9947 93.7217 20.428C93.4791 20.844 93.1671 21.1213 92.7857 21.26C92.4044 21.416 91.9797 21.4247 91.5117 21.286C91.0611 21.1473 90.6971 20.922 90.4197 20.61C90.7837 20.8007 91.1564 20.896 91.5377 20.896C91.9191 20.8787 92.2571 20.8093 92.5517 20.688C92.8637 20.5667 93.1584 20.3847 93.4357 20.142C93.7304 19.882 93.9384 19.5527 94.0597 19.154ZM85.5317 20.61C85.3584 21.0953 85.0377 21.5113 84.5697 21.858C84.1017 22.2047 83.6077 22.378 83.0877 22.378C82.5677 22.378 82.0737 22.2047 81.6057 21.858C81.1377 21.5113 80.8171 21.0953 80.6437 20.61C80.9731 21.0087 81.3544 21.2947 81.7877 21.468C82.2384 21.6587 82.6717 21.754 83.0877 21.754C83.5037 21.754 83.9284 21.6587 84.3617 21.468C84.8124 21.2947 85.2024 21.0087 85.5317 20.61ZM90.0037 20.61C89.8651 21.0087 89.5964 21.364 89.1977 21.676C88.8164 21.988 88.4091 22.144 87.9757 22.144C87.5424 22.144 87.1264 21.988 86.7277 21.676C86.3464 21.364 86.0864 21.0087 85.9477 20.61C86.2251 20.9393 86.5457 21.1733 86.9097 21.312C87.2737 21.4507 87.6291 21.52 87.9757 21.52C88.3224 21.52 88.6777 21.4507 89.0417 21.312C89.4057 21.1733 89.7264 20.9393 90.0037 20.61ZM94.3717 22.482C94.1637 23.106 93.7564 23.6 93.1497 23.964C92.5431 24.3453 91.9017 24.5447 91.2257 24.562C90.5671 24.562 89.9257 24.38 89.3017 24.016C88.6951 23.6693 88.2704 23.184 88.0277 22.56C88.4611 23.0627 88.9637 23.4787 89.5357 23.808C90.1251 24.1373 90.6884 24.302 91.2257 24.302C91.7631 24.2847 92.3177 24.1027 92.8897 23.756C93.4617 23.4093 93.9557 22.9847 94.3717 22.482ZM88.0277 22.56C87.8024 23.2013 87.3777 23.704 86.7537 24.068C86.1297 24.432 85.4797 24.614 84.8037 24.614C84.1277 24.614 83.4777 24.432 82.8537 24.068C82.2297 23.704 81.8051 23.2013 81.5797 22.56C82.0131 23.08 82.5244 23.5047 83.1137 23.834C83.7031 24.1807 84.2664 24.354 84.8037 24.354C85.3411 24.354 85.9044 24.1807 86.4937 23.834C87.0831 23.5047 87.5944 23.08 88.0277 22.56Z" fill="#FE0000"/>
</svg>
