<svg width="30" height="30" viewBox="0 0 30 30" fill="none" xmlns="http://www.w3.org/2000/svg">
<rect width="30" height="30" rx="15" fill="#34AADF"/>
<path d="M8.34612 14.4686C8.34612 14.4686 14.4495 11.898 16.5663 10.9928C17.3777 10.6307 20.1296 9.47209 20.1296 9.47209C20.1296 9.47209 21.3997 8.96522 21.2938 10.1962C21.2585 10.7031 20.9763 12.4772 20.694 14.3962C20.2707 17.1117 19.812 20.0807 19.812 20.0807C19.812 20.0807 19.7415 20.9134 19.1417 21.0583C18.542 21.2031 17.5541 20.5514 17.3777 20.4065C17.2366 20.2979 14.7317 18.6686 13.8145 17.8721C13.5675 17.6548 13.2853 17.2204 13.8497 16.7135C15.1198 15.5186 16.6368 14.0342 17.5541 13.0928C17.9775 12.6583 18.4008 11.6445 16.6368 12.8755C14.132 14.6497 11.6624 16.3152 11.6624 16.3152C11.6624 16.3152 11.0979 16.6772 10.0395 16.3514C8.98111 16.0255 7.74632 15.591 7.74632 15.591C7.74632 15.591 6.89966 15.0479 8.34612 14.4686Z" fill="white"/>
</svg>
