<svg width="30" height="30" viewBox="0 0 30 30" fill="none" xmlns="http://www.w3.org/2000/svg">
<rect width="30" height="30" rx="15" fill="#33CCFF"/>
<path d="M22.4457 10.2505C21.9503 10.4638 21.4295 10.6124 20.8962 10.6925C21.1456 10.6497 21.5124 10.2005 21.6585 10.0187C21.8803 9.74448 22.0494 9.4314 22.1571 9.0954C22.1571 9.07044 22.1821 9.03479 22.1571 9.01697C22.1446 9.0101 22.1305 9.0065 22.1162 9.0065C22.1019 9.0065 22.0878 9.0101 22.0752 9.01697C21.4961 9.33084 20.8798 9.57039 20.2409 9.72997C20.2186 9.73678 20.1949 9.73739 20.1723 9.73173C20.1497 9.72608 20.1291 9.71438 20.1126 9.69788C20.0629 9.63861 20.0094 9.58264 19.9524 9.53033C19.6918 9.29662 19.3961 9.10535 19.0761 8.96349C18.6443 8.78616 18.1778 8.70936 17.712 8.7389C17.2599 8.76747 16.8186 8.88882 16.4155 9.0954C16.0184 9.31319 15.6695 9.60907 15.3896 9.96526C15.0953 10.3319 14.8827 10.7573 14.7663 11.213C14.6703 11.6465 14.6595 12.0945 14.7343 12.5321C14.7343 12.6069 14.7343 12.6176 14.6702 12.6069C12.1306 12.2326 10.0469 11.3307 8.34433 9.39486C8.26953 9.3093 8.23035 9.3093 8.1698 9.39486C7.42894 10.5214 7.78868 12.3039 8.71476 13.1845C8.83943 13.3021 8.96765 13.4162 9.103 13.5231C8.6784 13.493 8.26417 13.3778 7.88485 13.1845C7.81362 13.1381 7.77444 13.1631 7.77087 13.2486C7.76078 13.3672 7.76078 13.4865 7.77087 13.6051C7.84519 14.1736 8.06903 14.7121 8.41948 15.1656C8.76994 15.6191 9.23445 15.9713 9.7655 16.1862C9.89496 16.2417 10.0299 16.2835 10.168 16.311C9.77492 16.3884 9.37177 16.4005 8.97478 16.3466C8.88929 16.3288 8.85723 16.3751 8.88929 16.4571C9.41288 17.8831 10.5491 18.3181 11.3826 18.5605C11.4966 18.5783 11.6105 18.5783 11.7388 18.6068C11.7388 18.6068 11.7388 18.6068 11.7174 18.6282C11.4716 19.0774 10.4779 19.3804 10.022 19.5373C9.18979 19.8365 8.30255 19.9508 7.42181 19.8724C7.2829 19.851 7.25085 19.8546 7.21523 19.8724C7.17961 19.8902 7.21523 19.9294 7.25441 19.9651C7.4325 20.0827 7.61059 20.1861 7.79581 20.2859C8.3472 20.587 8.93012 20.8261 9.53398 20.9989C12.6613 21.8617 16.1804 21.2271 18.5276 18.892C20.3727 17.0596 21.0209 14.532 21.0209 12.0009C21.0209 11.9046 21.1385 11.8476 21.2061 11.7977C21.6729 11.4336 22.0844 11.0037 22.4278 10.5214C22.4873 10.4495 22.5178 10.358 22.5133 10.2647C22.5133 10.2112 22.5133 10.2219 22.4457 10.2505Z" fill="white"/>
</svg>
