<svg width="30" height="30" viewBox="0 0 30 30" fill="none" xmlns="http://www.w3.org/2000/svg">
<rect width="30" height="30" rx="15" fill="#00D95F"/>
<path d="M7.50006 21.9446L8.57628 17.943C7.70834 16.3842 7.43258 14.5651 7.79962 12.8197C8.16665 11.0743 9.15186 9.51953 10.5744 8.44076C11.997 7.36199 13.7616 6.83156 15.5443 6.9468C17.327 7.06205 19.0083 7.81524 20.2796 9.06816C21.551 10.3211 22.3271 11.9897 22.4656 13.7678C22.6041 15.5459 22.0957 17.3143 21.0336 18.7483C19.9715 20.1824 18.4271 21.186 16.6836 21.575C14.9402 21.964 13.1147 21.7122 11.5422 20.866L7.50006 21.9446ZM11.7371 19.3685L11.9871 19.5166C13.1261 20.1906 14.4565 20.4695 15.7708 20.3099C17.0852 20.1502 18.3098 19.561 19.2537 18.634C20.1976 17.707 20.8079 16.4944 20.9893 15.185C21.1708 13.8756 20.9134 12.543 20.257 11.395C19.6007 10.2469 18.5825 9.34786 17.3609 8.8379C16.1393 8.32793 14.7831 8.23571 13.5036 8.5756C12.224 8.91549 11.0931 9.6684 10.2869 10.717C9.48071 11.7656 9.04463 13.051 9.04659 14.3729C9.04552 15.4689 9.34914 16.5437 9.92366 17.4777L10.0804 17.7357L9.47877 19.9692L11.7371 19.3685Z" fill="white"/>
<path fill-rule="evenodd" clip-rule="evenodd" d="M17.8045 15.4004C17.6579 15.2824 17.4863 15.1993 17.3028 15.1575C17.1192 15.1157 16.9285 15.1163 16.7452 15.1593C16.4698 15.2735 16.2918 15.7049 16.1139 15.9207C16.0764 15.9724 16.0212 16.0087 15.9588 16.0227C15.8964 16.0367 15.831 16.0275 15.7749 15.9968C14.7666 15.6025 13.9215 14.8795 13.3767 13.9452C13.3303 13.8869 13.3083 13.8129 13.3154 13.7387C13.3225 13.6646 13.3582 13.5961 13.4149 13.5476C13.6134 13.3514 13.7591 13.1085 13.8386 12.8412C13.8562 12.5464 13.7886 12.2527 13.6437 11.9952C13.5317 11.6342 13.3185 11.3127 13.0293 11.0688C12.8802 11.0018 12.7148 10.9794 12.5531 11.0041C12.3915 11.0289 12.2405 11.0999 12.1183 11.2084C11.9063 11.3911 11.7379 11.6189 11.6257 11.8751C11.5135 12.1314 11.4603 12.4094 11.4701 12.6889C11.4707 12.8458 11.4906 13.0021 11.5294 13.1542C11.6278 13.5196 11.7791 13.8688 11.9785 14.1906C12.1224 14.4371 12.2794 14.6757 12.4488 14.9055C12.9995 15.6601 13.6916 16.3008 14.4869 16.7921C14.8859 17.0417 15.3124 17.2447 15.758 17.397C16.2208 17.6064 16.7318 17.6868 17.2367 17.6296C17.5244 17.5861 17.797 17.4727 18.0304 17.2994C18.2639 17.1261 18.4511 16.8981 18.5756 16.6355C18.6488 16.4769 18.671 16.2996 18.6392 16.1279C18.5629 15.7768 18.0926 15.5696 17.8045 15.4004Z" fill="white"/>
</svg>
