<svg width="22" height="10" viewBox="0 0 22 10" fill="none" xmlns="http://www.w3.org/2000/svg">
<path fill-rule="evenodd" clip-rule="evenodd" d="M0 5C0 4.86739 0.0526784 4.74022 0.146447 4.64645C0.240215 4.55268 0.367392 4.5 0.5 4.5L20.293 4.50002L17.146 1.35402C17.0521 1.26013 16.9994 1.1328 16.9994 1.00002C16.9994 0.867245 17.0521 0.739908 17.146 0.646021C17.2399 0.552134 17.3672 0.49939 17.5 0.49939C17.6328 0.49939 17.7601 0.552134 17.854 0.646021L21.854 4.64602C21.9006 4.69247 21.9375 4.74764 21.9627 4.80839C21.9879 4.86913 22.0009 4.93425 22.0009 5.00002C22.0009 5.06579 21.9879 5.13091 21.9627 5.19165C21.9375 5.2524 21.9006 5.30758 21.854 5.35402L17.854 9.35402C17.7601 9.44791 17.6328 9.50065 17.5 9.50065C17.3672 9.50065 17.2399 9.44791 17.146 9.35402C17.0521 9.26013 16.9994 9.1328 16.9994 9.00002C16.9994 8.86725 17.0521 8.73991 17.146 8.64602L20.293 5.50002L0.5 5.5C0.367392 5.5 0.240215 5.44732 0.146447 5.35355C0.0526784 5.25979 0 5.13261 0 5Z" fill="black"/>
</svg>
