<svg width="20" height="20" viewBox="0 0 20 20" fill="none" xmlns="http://www.w3.org/2000/svg">
<path d="M10 10.0001H9.5C9.5 10.1327 9.55268 10.2599 9.64645 10.3536L10 10.0001ZM10 18.8334C5.12149 18.8334 1.16667 14.8786 1.16667 10.0001H0.166672C0.166672 15.4309 4.56921 19.8334 10 19.8334V18.8334ZM18.8333 10.0001C18.8333 14.8786 14.8785 18.8334 10 18.8334V19.8334C15.4308 19.8334 19.8333 15.4309 19.8333 10.0001H18.8333ZM10 1.16675C14.8785 1.16675 18.8333 5.12157 18.8333 10.0001H19.8333C19.8333 4.56928 15.4308 0.166748 10 0.166748V1.16675ZM10 0.166748C4.56921 0.166748 0.166672 4.56928 0.166672 10.0001H1.16667C1.16667 5.12157 5.12149 1.16675 10 1.16675V0.166748ZM9.5 4.00008V10.0001H10.5V4.00008H9.5ZM9.64645 10.3536L13.6465 14.3536L14.3536 13.6465L10.3536 9.64653L9.64645 10.3536Z" fill="#FE0000"/>
</svg>
