<svg width="20" height="20" viewBox="0 0 20 20" fill="none" xmlns="http://www.w3.org/2000/svg">
<path d="M14.6667 4.66675H16M5.99999 0.666748H14C16.9455 0.666748 19.3333 3.05456 19.3333 6.00008V14.0001C19.3333 16.9456 16.9455 19.3334 14 19.3334H5.99999C3.05447 19.3334 0.666656 16.9456 0.666656 14.0001V6.00008C0.666656 3.05456 3.05447 0.666748 5.99999 0.666748ZM9.99999 14.0001C7.79085 14.0001 5.99999 12.2092 5.99999 10.0001C5.99999 7.79094 7.79085 6.00008 9.99999 6.00008C12.2091 6.00008 14 7.79094 14 10.0001C14 12.2092 12.2091 14.0001 9.99999 14.0001Z" stroke="#FE0000"/>
</svg>
