<svg width="20" height="20" viewBox="0 0 20 20" fill="none" xmlns="http://www.w3.org/2000/svg">
<path d="M6.2923 0.666748H3.33334C1.86058 0.666748 0.666672 1.86066 0.666672 3.33341V6.00008C0.666672 13.3639 6.63621 19.3334 14 19.3334H16.6667C18.1394 19.3334 19.3333 18.1395 19.3333 16.6667V14.8241C19.3333 14.3191 19.048 13.8574 18.5963 13.6316L15.375 12.0209C14.6493 11.6581 13.7704 12.0221 13.5139 12.7919L13.1168 13.9829C12.8597 14.7544 12.0682 15.2137 11.2708 15.0542C8.07906 14.4159 5.58419 11.921 4.94585 8.7293C4.78636 7.93185 5.24564 7.14043 6.01715 6.88325L7.49532 6.39053C8.15629 6.17021 8.53619 5.47815 8.36721 4.80224L7.58583 1.6767C7.43744 1.08314 6.90413 0.666748 6.2923 0.666748Z" stroke="#FE0000"/>
</svg>
